# vectorwake hull, generated from client/arena/world.lua
o Chord
v -6.27344 8.61538 -0.62000
v -13.11719 4.46154 -0.62000
v -13.11719 4.46154 0.62000
v -6.27344 8.61538 -0.62000
v -13.11719 4.46154 0.62000
v -6.27344 8.61538 0.62000
v -6.27344 8.61538 0.62000
v -13.11719 4.46154 0.62000
v -11.41565 2.42737 1.98259
v -6.27344 8.61538 0.62000
v -11.41565 2.42737 1.98259
v -5.19527 5.92670 2.09972
v -13.11719 4.46154 -0.62000
v -6.27344 8.61538 -0.62000
v -5.19527 5.92670 -1.27108
v -13.11719 4.46154 -0.62000
v -5.19527 5.92670 -1.27108
v -11.41565 2.42737 -1.21954
v -13.11719 4.46154 -0.62000
v -18.82031 -2.00000 -0.62000
v -18.82031 -2.00000 0.62000
v -13.11719 4.46154 -0.62000
v -18.82031 -2.00000 0.62000
v -13.11719 4.46154 0.62000
v -13.11719 4.46154 0.62000
v -18.82031 -2.00000 0.62000
v -16.98468 -3.14300 1.71775
v -13.11719 4.46154 0.62000
v -16.98468 -3.14300 1.71775
v -11.41565 2.42737 1.98259
v -18.82031 -2.00000 -0.62000
v -13.11719 4.46154 -0.62000
v -11.41565 2.42737 -1.21954
v -18.82031 -2.00000 -0.62000
v -11.41565 2.42737 -1.21954
v -16.98468 -3.14300 -1.10301
v -18.82031 -2.00000 -0.62000
v -20.53125 -6.15385 -0.62000
v -20.53125 -6.15385 0.62000
v -18.82031 -2.00000 -0.62000
v -20.53125 -6.15385 0.62000
v -18.82031 -2.00000 0.62000
v -18.82031 -2.00000 0.62000
v -20.53125 -6.15385 0.62000
v -17.75816 -5.06720 2.17491
v -18.82031 -2.00000 0.62000
v -17.75816 -5.06720 2.17491
v -16.98468 -3.14300 1.71775
v -20.53125 -6.15385 -0.62000
v -18.82031 -2.00000 -0.62000
v -16.98468 -3.14300 -1.10301
v -20.53125 -6.15385 -0.62000
v -16.98468 -3.14300 -1.10301
v -17.75816 -5.06720 -1.30416
v -20.53125 -6.15385 -0.62000
v -16.53906 -8.00000 -0.62000
v -16.53906 -8.00000 0.62000
v -20.53125 -6.15385 -0.62000
v -16.53906 -8.00000 0.62000
v -20.53125 -6.15385 0.62000
v -20.53125 -6.15385 0.62000
v -16.53906 -8.00000 0.62000
v -16.85598 -5.44921 1.59754
v -20.53125 -6.15385 0.62000
v -16.85598 -5.44921 1.59754
v -17.75816 -5.06720 2.17491
v -16.53906 -8.00000 -0.62000
v -20.53125 -6.15385 -0.62000
v -17.75816 -5.06720 -1.30416
v -16.53906 -8.00000 -0.62000
v -17.75816 -5.06720 -1.30416
v -16.85598 -5.44921 -1.05012
v -16.53906 -8.00000 -0.62000
v -12.54688 -4.76923 -0.62000
v -12.54688 -4.76923 0.62000
v -16.53906 -8.00000 -0.62000
v -12.54688 -4.76923 0.62000
v -16.53906 -8.00000 0.62000
v -16.53906 -8.00000 0.62000
v -12.54688 -4.76923 0.62000
v -13.90846 -2.98552 1.77319
v -16.53906 -8.00000 0.62000
v -13.90846 -2.98552 1.77319
v -16.85598 -5.44921 1.59754
v -12.54688 -4.76923 -0.62000
v -16.53906 -8.00000 -0.62000
v -16.85598 -5.44921 -1.05012
v -12.54688 -4.76923 -0.62000
v -16.85598 -5.44921 -1.05012
v -13.90846 -2.98552 -1.12740
v -12.54688 -4.76923 -0.62000
v -7.41406 -1.07692 -0.62000
v -7.41406 -1.07692 0.62000
v -12.54688 -4.76923 -0.62000
v -7.41406 -1.07692 0.62000
v -12.54688 -4.76923 0.62000
v -12.54688 -4.76923 0.62000
v -7.41406 -1.07692 0.62000
v -8.67520 1.20954 1.94176
v -12.54688 -4.76923 0.62000
v -8.67520 1.20954 1.94176
v -13.90846 -2.98552 1.77319
v -7.41406 -1.07692 -0.62000
v -12.54688 -4.76923 -0.62000
v -13.90846 -2.98552 -1.12740
v -7.41406 -1.07692 -0.62000
v -13.90846 -2.98552 -1.12740
v -8.67520 1.20954 -1.20158
v -7.41406 -1.07692 -0.62000
v -2.85156 0.76923 -0.62000
v -2.85156 0.76923 0.62000
v -7.41406 -1.07692 -0.62000
v -2.85156 0.76923 0.62000
v -7.41406 -1.07692 0.62000
v -7.41406 -1.07692 0.62000
v -2.85156 0.76923 0.62000
v -3.53225 3.54293 2.04893
v -7.41406 -1.07692 0.62000
v -3.53225 3.54293 2.04893
v -8.67520 1.20954 1.94176
v -2.85156 0.76923 -0.62000
v -7.41406 -1.07692 -0.62000
v -8.67520 1.20954 -1.20158
v -2.85156 0.76923 -0.62000
v -8.67520 1.20954 -1.20158
v -3.53225 3.54293 -1.24873
v -2.85156 0.76923 -0.62000
v 0.00000 1.04615 -0.62000
v 0.00000 1.04615 0.62000
v -2.85156 0.76923 -0.62000
v 0.00000 1.04615 0.62000
v -2.85156 0.76923 0.62000
v -2.85156 0.76923 0.62000
v 0.00000 1.04615 0.62000
v 0.00000 4.02455 2.21888
v -2.85156 0.76923 0.62000
v 0.00000 4.02455 2.21888
v -3.53225 3.54293 2.04893
v 0.00000 1.04615 -0.62000
v -2.85156 0.76923 -0.62000
v -3.53225 3.54293 -1.24873
v 0.00000 1.04615 -0.62000
v -3.53225 3.54293 -1.24873
v 0.00000 4.02455 -1.32351
v 0.00000 1.04615 -0.62000
v 2.85156 0.76923 -0.62000
v 2.85156 0.76923 0.62000
v 0.00000 1.04615 -0.62000
v 2.85156 0.76923 0.62000
v 0.00000 1.04615 0.62000
v 0.00000 1.04615 0.62000
v 2.85156 0.76923 0.62000
v 3.53225 3.54293 2.04893
v 0.00000 1.04615 0.62000
v 3.53225 3.54293 2.04893
v 0.00000 4.02455 2.21888
v 2.85156 0.76923 -0.62000
v 0.00000 1.04615 -0.62000
v 0.00000 4.02455 -1.32351
v 2.85156 0.76923 -0.62000
v 0.00000 4.02455 -1.32351
v 3.53225 3.54293 -1.24873
v 2.85156 0.76923 -0.62000
v 7.41406 -1.07692 -0.62000
v 7.41406 -1.07692 0.62000
v 2.85156 0.76923 -0.62000
v 7.41406 -1.07692 0.62000
v 2.85156 0.76923 0.62000
v 2.85156 0.76923 0.62000
v 7.41406 -1.07692 0.62000
v 8.67520 1.20954 1.94176
v 2.85156 0.76923 0.62000
v 8.67520 1.20954 1.94176
v 3.53225 3.54293 2.04893
v 7.41406 -1.07692 -0.62000
v 2.85156 0.76923 -0.62000
v 3.53225 3.54293 -1.24873
v 7.41406 -1.07692 -0.62000
v 3.53225 3.54293 -1.24873
v 8.67520 1.20954 -1.20158
v 7.41406 -1.07692 -0.62000
v 12.54688 -4.76923 -0.62000
v 12.54688 -4.76923 0.62000
v 7.41406 -1.07692 -0.62000
v 12.54688 -4.76923 0.62000
v 7.41406 -1.07692 0.62000
v 7.41406 -1.07692 0.62000
v 12.54688 -4.76923 0.62000
v 13.90846 -2.98552 1.77319
v 7.41406 -1.07692 0.62000
v 13.90846 -2.98552 1.77319
v 8.67520 1.20954 1.94176
v 12.54688 -4.76923 -0.62000
v 7.41406 -1.07692 -0.62000
v 8.67520 1.20954 -1.20158
v 12.54688 -4.76923 -0.62000
v 8.67520 1.20954 -1.20158
v 13.90846 -2.98552 -1.12740
v 12.54688 -4.76923 -0.62000
v 16.53906 -8.00000 -0.62000
v 16.53906 -8.00000 0.62000
v 12.54688 -4.76923 -0.62000
v 16.53906 -8.00000 0.62000
v 12.54688 -4.76923 0.62000
v 12.54688 -4.76923 0.62000
v 16.53906 -8.00000 0.62000
v 16.85598 -5.44921 1.59753
v 12.54688 -4.76923 0.62000
v 16.85598 -5.44921 1.59753
v 13.90846 -2.98552 1.77319
v 16.53906 -8.00000 -0.62000
v 12.54688 -4.76923 -0.62000
v 13.90846 -2.98552 -1.12740
v 16.53906 -8.00000 -0.62000
v 13.90846 -2.98552 -1.12740
v 16.85598 -5.44921 -1.05012
v 16.53906 -8.00000 -0.62000
v 20.53125 -6.15385 -0.62000
v 20.53125 -6.15385 0.62000
v 16.53906 -8.00000 -0.62000
v 20.53125 -6.15385 0.62000
v 16.53906 -8.00000 0.62000
v 16.53906 -8.00000 0.62000
v 20.53125 -6.15385 0.62000
v 17.75816 -5.06720 2.17491
v 16.53906 -8.00000 0.62000
v 17.75816 -5.06720 2.17491
v 16.85598 -5.44921 1.59753
v 20.53125 -6.15385 -0.62000
v 16.53906 -8.00000 -0.62000
v 16.85598 -5.44921 -1.05012
v 20.53125 -6.15385 -0.62000
v 16.85598 -5.44921 -1.05012
v 17.75816 -5.06720 -1.30416
v 20.53125 -6.15385 -0.62000
v 18.82031 -2.00000 -0.62000
v 18.82031 -2.00000 0.62000
v 20.53125 -6.15385 -0.62000
v 18.82031 -2.00000 0.62000
v 20.53125 -6.15385 0.62000
v 20.53125 -6.15385 0.62000
v 18.82031 -2.00000 0.62000
v 16.98468 -3.14300 1.71775
v 20.53125 -6.15385 0.62000
v 16.98468 -3.14300 1.71775
v 17.75816 -5.06720 2.17491
v 18.82031 -2.00000 -0.62000
v 20.53125 -6.15385 -0.62000
v 17.75816 -5.06720 -1.30416
v 18.82031 -2.00000 -0.62000
v 17.75816 -5.06720 -1.30416
v 16.98468 -3.14300 -1.10301
v 18.82031 -2.00000 -0.62000
v 13.11719 4.46154 -0.62000
v 13.11719 4.46154 0.62000
v 18.82031 -2.00000 -0.62000
v 13.11719 4.46154 0.62000
v 18.82031 -2.00000 0.62000
v 18.82031 -2.00000 0.62000
v 13.11719 4.46154 0.62000
v 11.41565 2.42737 1.98259
v 18.82031 -2.00000 0.62000
v 11.41565 2.42737 1.98259
v 16.98468 -3.14300 1.71775
v 13.11719 4.46154 -0.62000
v 18.82031 -2.00000 -0.62000
v 16.98468 -3.14300 -1.10301
v 13.11719 4.46154 -0.62000
v 16.98468 -3.14300 -1.10301
v 11.41565 2.42737 -1.21954
v 13.11719 4.46154 -0.62000
v 6.27344 8.61538 -0.62000
v 6.27344 8.61538 0.62000
v 13.11719 4.46154 -0.62000
v 6.27344 8.61538 0.62000
v 13.11719 4.46154 0.62000
v 13.11719 4.46154 0.62000
v 6.27344 8.61538 0.62000
v 5.19527 5.92670 2.09972
v 13.11719 4.46154 0.62000
v 5.19527 5.92670 2.09972
v 11.41565 2.42737 1.98259
v 6.27344 8.61538 -0.62000
v 13.11719 4.46154 -0.62000
v 11.41565 2.42737 -1.21954
v 6.27344 8.61538 -0.62000
v 11.41565 2.42737 -1.21954
v 5.19527 5.92670 -1.27108
v 6.27344 8.61538 -0.62000
v 0.00000 10.00000 -0.62000
v 0.00000 10.00000 0.62000
v 6.27344 8.61538 -0.62000
v 0.00000 10.00000 0.62000
v 6.27344 8.61538 0.62000
v 6.27344 8.61538 0.62000
v 0.00000 10.00000 0.62000
v 0.00000 7.02160 2.27572
v 6.27344 8.61538 0.62000
v 0.00000 7.02160 2.27572
v 5.19527 5.92670 2.09972
v 0.00000 10.00000 -0.62000
v 6.27344 8.61538 -0.62000
v 5.19527 5.92670 -1.27108
v 0.00000 10.00000 -0.62000
v 5.19527 5.92670 -1.27108
v 0.00000 7.02160 -1.34852
v 0.00000 10.00000 -0.62000
v -6.27344 8.61538 -0.62000
v -6.27344 8.61538 0.62000
v 0.00000 10.00000 -0.62000
v -6.27344 8.61538 0.62000
v 0.00000 10.00000 0.62000
v 0.00000 10.00000 0.62000
v -6.27344 8.61538 0.62000
v -5.19527 5.92670 2.09972
v 0.00000 10.00000 0.62000
v -5.19527 5.92670 2.09972
v 0.00000 7.02160 2.27572
v -6.27344 8.61538 -0.62000
v 0.00000 10.00000 -0.62000
v 0.00000 7.02160 -1.34852
v -6.27344 8.61538 -0.62000
v 0.00000 7.02160 -1.34852
v -5.19527 5.92670 -1.27108
v 0.00000 7.02160 2.27572
v -5.19527 5.92670 2.09972
v -11.41565 2.42737 1.98259
v 0.00000 7.02160 -1.34852
v -11.41565 2.42737 -1.21954
v -5.19527 5.92670 -1.27108
v 0.00000 7.02160 2.27572
v -11.41565 2.42737 1.98259
v -16.98468 -3.14300 1.71775
v 0.00000 7.02160 -1.34852
v -16.98468 -3.14300 -1.10301
v -11.41565 2.42737 -1.21954
v -16.98468 -3.14300 1.71775
v -17.75816 -5.06720 2.17491
v -16.85598 -5.44921 1.59754
v -16.98468 -3.14300 -1.10301
v -16.85598 -5.44921 -1.05012
v -17.75816 -5.06720 -1.30416
v -16.98468 -3.14300 1.71775
v -16.85598 -5.44921 1.59754
v -13.90846 -2.98552 1.77319
v -16.98468 -3.14300 -1.10301
v -13.90846 -2.98552 -1.12740
v -16.85598 -5.44921 -1.05012
v -16.98468 -3.14300 1.71775
v -13.90846 -2.98552 1.77319
v -8.67520 1.20954 1.94176
v -16.98468 -3.14300 -1.10301
v -8.67520 1.20954 -1.20158
v -13.90846 -2.98552 -1.12740
v 0.00000 7.02160 2.27572
v -16.98468 -3.14300 1.71775
v -8.67520 1.20954 1.94176
v 0.00000 7.02160 -1.34852
v -8.67520 1.20954 -1.20158
v -16.98468 -3.14300 -1.10301
v 0.00000 7.02160 2.27572
v -8.67520 1.20954 1.94176
v -3.53225 3.54293 2.04893
v 0.00000 7.02160 -1.34852
v -3.53225 3.54293 -1.24873
v -8.67520 1.20954 -1.20158
v 0.00000 7.02160 2.27572
v -3.53225 3.54293 2.04893
v 0.00000 4.02455 2.21888
v 0.00000 7.02160 -1.34852
v 0.00000 4.02455 -1.32351
v -3.53225 3.54293 -1.24873
v 0.00000 7.02160 2.27572
v 0.00000 4.02455 2.21888
v 3.53225 3.54293 2.04893
v 0.00000 7.02160 -1.34852
v 3.53225 3.54293 -1.24873
v 0.00000 4.02455 -1.32351
v 0.00000 7.02160 2.27572
v 3.53225 3.54293 2.04893
v 8.67520 1.20954 1.94176
v 0.00000 7.02160 -1.34852
v 8.67520 1.20954 -1.20158
v 3.53225 3.54293 -1.24873
v 13.90846 -2.98552 1.77319
v 16.85598 -5.44921 1.59753
v 17.75816 -5.06720 2.17491
v 13.90846 -2.98552 -1.12740
v 17.75816 -5.06720 -1.30416
v 16.85598 -5.44921 -1.05012
v 8.67520 1.20954 1.94176
v 13.90846 -2.98552 1.77319
v 17.75816 -5.06720 2.17491
v 8.67520 1.20954 -1.20158
v 17.75816 -5.06720 -1.30416
v 13.90846 -2.98552 -1.12740
v 8.67520 1.20954 1.94176
v 17.75816 -5.06720 2.17491
v 16.98468 -3.14300 1.71775
v 8.67520 1.20954 -1.20158
v 16.98468 -3.14300 -1.10301
v 17.75816 -5.06720 -1.30416
v 0.00000 7.02160 2.27572
v 8.67520 1.20954 1.94176
v 16.98468 -3.14300 1.71775
v 0.00000 7.02160 -1.34852
v 16.98468 -3.14300 -1.10301
v 8.67520 1.20954 -1.20158
v 0.00000 7.02160 2.27572
v 16.98468 -3.14300 1.71775
v 11.41565 2.42737 1.98259
v 0.00000 7.02160 -1.34852
v 11.41565 2.42737 -1.21954
v 16.98468 -3.14300 -1.10301
v 11.41565 2.42737 1.98259
v 5.19527 5.92670 2.09972
v 0.00000 7.02160 2.27572
v 11.41565 2.42737 -1.21954
v 0.00000 7.02160 -1.34852
v 5.19527 5.92670 -1.27108
v 0.00000 5.00000 3.52500
v 0.00000 8.15385 3.52500
v 2.50938 6.30769 3.52500
v 0.00000 8.15385 2.12500
v 2.50938 6.30769 2.12500
v 2.50938 6.30769 3.52500
v 0.00000 8.15385 2.12500
v 2.50938 6.30769 3.52500
v 0.00000 8.15385 3.52500
v 0.00000 5.00000 3.52500
v 2.50938 6.30769 3.52500
v 2.50938 3.53846 3.52500
v 2.50938 6.30769 2.12500
v 2.50938 3.53846 2.12500
v 2.50938 3.53846 3.52500
v 2.50938 6.30769 2.12500
v 2.50938 3.53846 3.52500
v 2.50938 6.30769 3.52500
v 0.00000 5.00000 3.52500
v 2.50938 3.53846 3.52500
v 0.00000 2.15385 3.52500
v 2.50938 3.53846 2.12500
v 0.00000 2.15385 2.12500
v 0.00000 2.15385 3.52500
v 2.50938 3.53846 2.12500
v 0.00000 2.15385 3.52500
v 2.50938 3.53846 3.52500
v 0.00000 5.00000 3.52500
v 0.00000 2.15385 3.52500
v -2.50938 3.53846 3.52500
v 0.00000 2.15385 2.12500
v -2.50938 3.53846 2.12500
v -2.50938 3.53846 3.52500
v 0.00000 2.15385 2.12500
v -2.50938 3.53846 3.52500
v 0.00000 2.15385 3.52500
v 0.00000 5.00000 3.52500
v -2.50938 3.53846 3.52500
v -2.50938 6.30769 3.52500
v -2.50938 3.53846 2.12500
v -2.50938 6.30769 2.12500
v -2.50938 6.30769 3.52500
v -2.50938 3.53846 2.12500
v -2.50938 6.30769 3.52500
v -2.50938 3.53846 3.52500
v 0.00000 5.00000 3.52500
v -2.50938 6.30769 3.52500
v 0.00000 8.15385 3.52500
v -2.50938 6.30769 2.12500
v 0.00000 8.15385 2.12500
v 0.00000 8.15385 3.52500
v -2.50938 6.30769 2.12500
v 0.00000 8.15385 3.52500
v -2.50938 6.30769 3.52500
v 15.91172 -5.23077 3.17668
v 14.60000 -3.01538 3.17668
v 18.70625 -5.60000 3.17668
v 14.60000 -3.01538 1.77668
v 18.70625 -5.60000 1.77668
v 18.70625 -5.60000 3.17668
v 14.60000 -3.01538 1.77668
v 18.70625 -5.60000 3.17668
v 14.60000 -3.01538 3.17668
v 15.91172 -5.23077 3.17668
v 18.70625 -5.60000 3.17668
v 17.10938 -7.63077 3.17668
v 18.70625 -5.60000 1.77668
v 17.10938 -7.63077 1.77668
v 17.10938 -7.63077 3.17668
v 18.70625 -5.60000 1.77668
v 17.10938 -7.63077 3.17668
v 18.70625 -5.60000 3.17668
v 15.91172 -5.23077 3.17668
v 17.10938 -7.63077 3.17668
v 13.23125 -4.67692 3.17668
v 17.10938 -7.63077 1.77668
v 13.23125 -4.67692 1.77668
v 13.23125 -4.67692 3.17668
v 17.10938 -7.63077 1.77668
v 13.23125 -4.67692 3.17668
v 17.10938 -7.63077 3.17668
v 15.91172 -5.23077 3.17668
v 13.23125 -4.67692 3.17668
v 14.60000 -3.01538 3.17668
v 13.23125 -4.67692 1.77668
v 14.60000 -3.01538 1.77668
v 14.60000 -3.01538 3.17668
v 13.23125 -4.67692 1.77668
v 14.60000 -3.01538 3.17668
v 13.23125 -4.67692 3.17668
v -15.91172 -5.23077 3.17668
v -13.23125 -4.67692 3.17668
v -17.10938 -7.63077 3.17668
v -13.23125 -4.67692 1.77668
v -17.10938 -7.63077 1.77668
v -17.10938 -7.63077 3.17668
v -13.23125 -4.67692 1.77668
v -17.10938 -7.63077 3.17668
v -13.23125 -4.67692 3.17668
v -15.91172 -5.23077 3.17668
v -17.10938 -7.63077 3.17668
v -18.70625 -5.60000 3.17668
v -17.10938 -7.63077 1.77668
v -18.70625 -5.60000 1.77668
v -18.70625 -5.60000 3.17668
v -17.10938 -7.63077 1.77668
v -18.70625 -5.60000 3.17668
v -17.10938 -7.63077 3.17668
v -15.91172 -5.23077 3.17668
v -18.70625 -5.60000 3.17668
v -14.60000 -3.01538 3.17668
v -18.70625 -5.60000 1.77668
v -14.60000 -3.01538 1.77668
v -14.60000 -3.01538 3.17668
v -18.70625 -5.60000 1.77668
v -14.60000 -3.01538 3.17668
v -18.70625 -5.60000 3.17668
v -15.91172 -5.23077 3.17668
v -14.60000 -3.01538 3.17668
v -13.23125 -4.67692 3.17668
v -14.60000 -3.01538 1.77668
v -13.23125 -4.67692 1.77668
v -13.23125 -4.67692 3.17668
v -14.60000 -3.01538 1.77668
v -13.23125 -4.67692 3.17668
v -14.60000 -3.01538 3.17668
v 17.89948 -4.60769 0.54425
v 17.89948 -0.06154 0.54425
v 17.50443 -0.06154 -0.13999
v 17.89948 -4.60769 0.54425
v 17.50443 -0.06154 -0.13999
v 17.50443 -4.60769 -0.13999
v 17.10938 -0.06154 0.54425
v 17.89948 -0.06154 0.54425
v 17.50443 -0.06154 -0.13999
v 17.10938 -4.60769 0.54425
v 17.50443 -4.60769 -0.13999
v 17.89948 -4.60769 0.54425
v 17.50443 -4.60769 -0.13999
v 17.50443 -0.06154 -0.13999
v 16.71433 -0.06154 -0.13999
v 17.50443 -4.60769 -0.13999
v 16.71433 -0.06154 -0.13999
v 16.71433 -4.60769 -0.13999
v 17.10938 -0.06154 0.54425
v 17.50443 -0.06154 -0.13999
v 16.71433 -0.06154 -0.13999
v 17.10938 -4.60769 0.54425
v 16.71433 -4.60769 -0.13999
v 17.50443 -4.60769 -0.13999
v 16.71433 -4.60769 -0.13999
v 16.71433 -0.06154 -0.13999
v 16.31928 -0.06154 0.54425
v 16.71433 -4.60769 -0.13999
v 16.31928 -0.06154 0.54425
v 16.31928 -4.60769 0.54425
v 17.10938 -0.06154 0.54425
v 16.71433 -0.06154 -0.13999
v 16.31928 -0.06154 0.54425
v 17.10938 -4.60769 0.54425
v 16.31928 -4.60769 0.54425
v 16.71433 -4.60769 -0.13999
v 16.31928 -4.60769 0.54425
v 16.31928 -0.06154 0.54425
v 16.71433 -0.06154 1.22850
v 16.31928 -4.60769 0.54425
v 16.71433 -0.06154 1.22850
v 16.71433 -4.60769 1.22850
v 17.10938 -0.06154 0.54425
v 16.31928 -0.06154 0.54425
v 16.71433 -0.06154 1.22850
v 17.10938 -4.60769 0.54425
v 16.71433 -4.60769 1.22850
v 16.31928 -4.60769 0.54425
v 16.71433 -4.60769 1.22850
v 16.71433 -0.06154 1.22850
v 17.50443 -0.06154 1.22850
v 16.71433 -4.60769 1.22850
v 17.50443 -0.06154 1.22850
v 17.50443 -4.60769 1.22850
v 17.10938 -0.06154 0.54425
v 16.71433 -0.06154 1.22850
v 17.50443 -0.06154 1.22850
v 17.10938 -4.60769 0.54425
v 17.50443 -4.60769 1.22850
v 16.71433 -4.60769 1.22850
v 17.50443 -4.60769 1.22850
v 17.50443 -0.06154 1.22850
v 17.89948 -0.06154 0.54425
v 17.50443 -4.60769 1.22850
v 17.89948 -0.06154 0.54425
v 17.89948 -4.60769 0.54425
v 17.10938 -0.06154 0.54425
v 17.50443 -0.06154 1.22850
v 17.89948 -0.06154 0.54425
v 17.10938 -4.60769 0.54425
v 17.89948 -4.60769 0.54425
v 17.50443 -4.60769 1.22850
v 17.10938 -0.00154 0.54425
v 17.75726 -0.00154 0.54425
v 17.43332 -0.00154 -0.01683
v 17.10938 -0.00154 0.54425
v 17.43332 -0.00154 -0.01683
v 16.78544 -0.00154 -0.01683
v 17.10938 -0.00154 0.54425
v 16.78544 -0.00154 -0.01683
v 16.46150 -0.00154 0.54425
v 17.10938 -0.00154 0.54425
v 16.46150 -0.00154 0.54425
v 16.78544 -0.00154 1.10533
v 17.10938 -0.00154 0.54425
v 16.78544 -0.00154 1.10533
v 17.43332 -0.00154 1.10533
v 17.10938 -0.00154 0.54425
v 17.43332 -0.00154 1.10533
v 17.75726 -0.00154 0.54425
v -16.31928 -4.60769 0.54425
v -16.31928 -0.06154 0.54425
v -16.71433 -0.06154 -0.13999
v -16.31928 -4.60769 0.54425
v -16.71433 -0.06154 -0.13999
v -16.71433 -4.60769 -0.13999
v -17.10938 -0.06154 0.54425
v -16.31928 -0.06154 0.54425
v -16.71433 -0.06154 -0.13999
v -17.10938 -4.60769 0.54425
v -16.71433 -4.60769 -0.13999
v -16.31928 -4.60769 0.54425
v -16.71433 -4.60769 -0.13999
v -16.71433 -0.06154 -0.13999
v -17.50443 -0.06154 -0.13999
v -16.71433 -4.60769 -0.13999
v -17.50443 -0.06154 -0.13999
v -17.50443 -4.60769 -0.13999
v -17.10938 -0.06154 0.54425
v -16.71433 -0.06154 -0.13999
v -17.50443 -0.06154 -0.13999
v -17.10938 -4.60769 0.54425
v -17.50443 -4.60769 -0.13999
v -16.71433 -4.60769 -0.13999
v -17.50443 -4.60769 -0.13999
v -17.50443 -0.06154 -0.13999
v -17.89948 -0.06154 0.54425
v -17.50443 -4.60769 -0.13999
v -17.89948 -0.06154 0.54425
v -17.89948 -4.60769 0.54425
v -17.10938 -0.06154 0.54425
v -17.50443 -0.06154 -0.13999
v -17.89948 -0.06154 0.54425
v -17.10938 -4.60769 0.54425
v -17.89948 -4.60769 0.54425
v -17.50443 -4.60769 -0.13999
v -17.89948 -4.60769 0.54425
v -17.89948 -0.06154 0.54425
v -17.50443 -0.06154 1.22850
v -17.89948 -4.60769 0.54425
v -17.50443 -0.06154 1.22850
v -17.50443 -4.60769 1.22850
v -17.10938 -0.06154 0.54425
v -17.89948 -0.06154 0.54425
v -17.50443 -0.06154 1.22850
v -17.10938 -4.60769 0.54425
v -17.50443 -4.60769 1.22850
v -17.89948 -4.60769 0.54425
v -17.50443 -4.60769 1.22850
v -17.50443 -0.06154 1.22850
v -16.71433 -0.06154 1.22850
v -17.50443 -4.60769 1.22850
v -16.71433 -0.06154 1.22850
v -16.71433 -4.60769 1.22850
v -17.10938 -0.06154 0.54425
v -17.50443 -0.06154 1.22850
v -16.71433 -0.06154 1.22850
v -17.10938 -4.60769 0.54425
v -16.71433 -4.60769 1.22850
v -17.50443 -4.60769 1.22850
v -16.71433 -4.60769 1.22850
v -16.71433 -0.06154 1.22850
v -16.31928 -0.06154 0.54425
v -16.71433 -4.60769 1.22850
v -16.31928 -0.06154 0.54425
v -16.31928 -4.60769 0.54425
v -17.10938 -0.06154 0.54425
v -16.71433 -0.06154 1.22850
v -16.31928 -0.06154 0.54425
v -17.10938 -4.60769 0.54425
v -16.31928 -4.60769 0.54425
v -16.71433 -4.60769 1.22850
v -17.10938 -0.00154 0.54425
v -16.46150 -0.00154 0.54425
v -16.78544 -0.00154 -0.01683
v -17.10938 -0.00154 0.54425
v -16.78544 -0.00154 -0.01683
v -17.43332 -0.00154 -0.01683
v -17.10938 -0.00154 0.54425
v -17.43332 -0.00154 -0.01683
v -17.75726 -0.00154 0.54425
v -17.10938 -0.00154 0.54425
v -17.75726 -0.00154 0.54425
v -17.43332 -0.00154 1.10533
v -17.10938 -0.00154 0.54425
v -17.43332 -0.00154 1.10533
v -16.78544 -0.00154 1.10533
v -17.10938 -0.00154 0.54425
v -16.78544 -0.00154 1.10533
v -16.46150 -0.00154 0.54425
v 1.97011 5.20000 3.36354
v 1.39308 6.59308 3.36354
v 0.98506 6.18506 4.75662
v 1.97011 5.20000 3.36354
v 0.98506 6.18506 4.75662
v 1.39308 5.20000 4.75662
v 1.39308 6.59308 3.36354
v -0.00000 7.17011 3.36354
v -0.00000 6.59308 4.75662
v 1.39308 6.59308 3.36354
v -0.00000 6.59308 4.75662
v 0.98506 6.18506 4.75662
v -0.00000 7.17011 3.36354
v -1.39308 6.59308 3.36354
v -0.98506 6.18506 4.75662
v -0.00000 7.17011 3.36354
v -0.98506 6.18506 4.75662
v -0.00000 6.59308 4.75662
v -1.39308 6.59308 3.36354
v -1.97011 5.20000 3.36354
v -1.39308 5.20000 4.75662
v -1.39308 6.59308 3.36354
v -1.39308 5.20000 4.75662
v -0.98506 6.18506 4.75662
v -1.97011 5.20000 3.36354
v -1.39308 3.80692 3.36354
v -0.98506 4.21494 4.75662
v -1.97011 5.20000 3.36354
v -0.98506 4.21494 4.75662
v -1.39308 5.20000 4.75662
v -1.39308 3.80692 3.36354
v 0.00000 3.22989 3.36354
v 0.00000 3.80692 4.75662
v -1.39308 3.80692 3.36354
v 0.00000 3.80692 4.75662
v -0.98506 4.21494 4.75662
v 0.00000 3.22989 3.36354
v 1.39308 3.80692 3.36354
v 0.98506 4.21494 4.75662
v 0.00000 3.22989 3.36354
v 0.98506 4.21494 4.75662
v 0.00000 3.80692 4.75662
v 1.39308 3.80692 3.36354
v 1.97011 5.20000 3.36354
v 1.39308 5.20000 4.75662
v 1.39308 3.80692 3.36354
v 1.39308 5.20000 4.75662
v 0.98506 4.21494 4.75662
v 1.39308 5.20000 4.75662
v 0.98506 6.18506 4.75662
v -0.00000 5.20000 5.33366
v 0.98506 6.18506 4.75662
v -0.00000 6.59308 4.75662
v -0.00000 5.20000 5.33366
v -0.00000 6.59308 4.75662
v -0.98506 6.18506 4.75662
v 0.00000 5.20000 5.33366
v -0.98506 6.18506 4.75662
v -1.39308 5.20000 4.75662
v 0.00000 5.20000 5.33366
v -1.39308 5.20000 4.75662
v -0.98506 4.21494 4.75662
v 0.00000 5.20000 5.33366
v -0.98506 4.21494 4.75662
v 0.00000 3.80692 4.75662
v 0.00000 5.20000 5.33366
v 0.00000 3.80692 4.75662
v 0.98506 4.21494 4.75662
v -0.00000 5.20000 5.33366
v 0.98506 4.21494 4.75662
v 1.39308 5.20000 4.75662
v -0.00000 5.20000 5.33366
v 0.00000 6.95385 3.03215
v 1.48281 5.29231 4.13877
v 0.00000 5.24616 5.13877
v 1.48281 5.29231 4.13877
v 0.00000 3.44615 2.56141
v 0.00000 5.24616 5.13877
v 0.00000 3.44615 2.56141
v -1.48281 5.29231 4.13877
v 0.00000 5.24616 5.13877
v -1.48281 5.29231 4.13877
v 0.00000 6.95385 3.03215
v 0.00000 5.24616 5.13877
v -11.14531 -2.69231 0.00000
v -11.14531 -4.59231 0.00000
v -10.42031 -4.59231 -1.25574
v -11.14531 -2.69231 0.00000
v -10.42031 -4.59231 -1.25574
v -10.42031 -2.69231 -1.25574
v -9.69531 -4.59231 0.00000
v -11.14531 -4.59231 0.00000
v -10.42031 -4.59231 -1.25574
v -9.69531 -2.69231 0.00000
v -10.42031 -2.69231 -1.25574
v -11.14531 -2.69231 0.00000
v -10.42031 -2.69231 -1.25574
v -10.42031 -4.59231 -1.25574
v -8.97031 -4.59231 -1.25574
v -10.42031 -2.69231 -1.25574
v -8.97031 -4.59231 -1.25574
v -8.97031 -2.69231 -1.25574
v -9.69531 -4.59231 0.00000
v -10.42031 -4.59231 -1.25574
v -8.97031 -4.59231 -1.25574
v -9.69531 -2.69231 0.00000
v -8.97031 -2.69231 -1.25574
v -10.42031 -2.69231 -1.25574
v -8.97031 -2.69231 -1.25574
v -8.97031 -4.59231 -1.25574
v -8.24531 -4.59231 0.00000
v -8.97031 -2.69231 -1.25574
v -8.24531 -4.59231 0.00000
v -8.24531 -2.69231 0.00000
v -9.69531 -4.59231 0.00000
v -8.97031 -4.59231 -1.25574
v -8.24531 -4.59231 0.00000
v -9.69531 -2.69231 0.00000
v -8.24531 -2.69231 0.00000
v -8.97031 -2.69231 -1.25574
v -8.24531 -2.69231 0.00000
v -8.24531 -4.59231 0.00000
v -8.97031 -4.59231 1.25574
v -8.24531 -2.69231 0.00000
v -8.97031 -4.59231 1.25574
v -8.97031 -2.69231 1.25574
v -9.69531 -4.59231 0.00000
v -8.24531 -4.59231 0.00000
v -8.97031 -4.59231 1.25574
v -9.69531 -2.69231 0.00000
v -8.97031 -2.69231 1.25574
v -8.24531 -2.69231 0.00000
v -8.97031 -2.69231 1.25574
v -8.97031 -4.59231 1.25574
v -10.42031 -4.59231 1.25574
v -8.97031 -2.69231 1.25574
v -10.42031 -4.59231 1.25574
v -10.42031 -2.69231 1.25574
v -9.69531 -4.59231 0.00000
v -8.97031 -4.59231 1.25574
v -10.42031 -4.59231 1.25574
v -9.69531 -2.69231 0.00000
v -10.42031 -2.69231 1.25574
v -8.97031 -2.69231 1.25574
v -10.42031 -2.69231 1.25574
v -10.42031 -4.59231 1.25574
v -11.14531 -4.59231 -0.00000
v -10.42031 -2.69231 1.25574
v -11.14531 -4.59231 -0.00000
v -11.14531 -2.69231 -0.00000
v -9.69531 -4.59231 0.00000
v -10.42031 -4.59231 1.25574
v -11.14531 -4.59231 -0.00000
v -9.69531 -2.69231 0.00000
v -11.14531 -2.69231 -0.00000
v -10.42031 -2.69231 1.25574
v -9.69531 -4.65231 0.00000
v -10.71031 -4.65231 0.00000
v -10.20281 -4.65231 -0.87902
v -9.69531 -4.65231 0.00000
v -10.20281 -4.65231 -0.87902
v -9.18781 -4.65231 -0.87902
v -9.69531 -4.65231 0.00000
v -9.18781 -4.65231 -0.87902
v -8.68031 -4.65231 0.00000
v -9.69531 -4.65231 0.00000
v -8.68031 -4.65231 0.00000
v -9.18781 -4.65231 0.87902
v -9.69531 -4.65231 0.00000
v -9.18781 -4.65231 0.87902
v -10.20281 -4.65231 0.87902
v -9.69531 -4.65231 0.00000
v -10.20281 -4.65231 0.87902
v -10.71031 -4.65231 -0.00000
v 8.24531 -2.69231 0.00000
v 8.24531 -4.59231 0.00000
v 8.97031 -4.59231 -1.25574
v 8.24531 -2.69231 0.00000
v 8.97031 -4.59231 -1.25574
v 8.97031 -2.69231 -1.25574
v 9.69531 -4.59231 0.00000
v 8.24531 -4.59231 0.00000
v 8.97031 -4.59231 -1.25574
v 9.69531 -2.69231 0.00000
v 8.97031 -2.69231 -1.25574
v 8.24531 -2.69231 0.00000
v 8.97031 -2.69231 -1.25574
v 8.97031 -4.59231 -1.25574
v 10.42031 -4.59231 -1.25574
v 8.97031 -2.69231 -1.25574
v 10.42031 -4.59231 -1.25574
v 10.42031 -2.69231 -1.25574
v 9.69531 -4.59231 0.00000
v 8.97031 -4.59231 -1.25574
v 10.42031 -4.59231 -1.25574
v 9.69531 -2.69231 0.00000
v 10.42031 -2.69231 -1.25574
v 8.97031 -2.69231 -1.25574
v 10.42031 -2.69231 -1.25574
v 10.42031 -4.59231 -1.25574
v 11.14531 -4.59231 0.00000
v 10.42031 -2.69231 -1.25574
v 11.14531 -4.59231 0.00000
v 11.14531 -2.69231 0.00000
v 9.69531 -4.59231 0.00000
v 10.42031 -4.59231 -1.25574
v 11.14531 -4.59231 0.00000
v 9.69531 -2.69231 0.00000
v 11.14531 -2.69231 0.00000
v 10.42031 -2.69231 -1.25574
v 11.14531 -2.69231 0.00000
v 11.14531 -4.59231 0.00000
v 10.42031 -4.59231 1.25574
v 11.14531 -2.69231 0.00000
v 10.42031 -4.59231 1.25574
v 10.42031 -2.69231 1.25574
v 9.69531 -4.59231 0.00000
v 11.14531 -4.59231 0.00000
v 10.42031 -4.59231 1.25574
v 9.69531 -2.69231 0.00000
v 10.42031 -2.69231 1.25574
v 11.14531 -2.69231 0.00000
v 10.42031 -2.69231 1.25574
v 10.42031 -4.59231 1.25574
v 8.97031 -4.59231 1.25574
v 10.42031 -2.69231 1.25574
v 8.97031 -4.59231 1.25574
v 8.97031 -2.69231 1.25574
v 9.69531 -4.59231 0.00000
v 10.42031 -4.59231 1.25574
v 8.97031 -4.59231 1.25574
v 9.69531 -2.69231 0.00000
v 8.97031 -2.69231 1.25574
v 10.42031 -2.69231 1.25574
v 8.97031 -2.69231 1.25574
v 8.97031 -4.59231 1.25574
v 8.24531 -4.59231 -0.00000
v 8.97031 -2.69231 1.25574
v 8.24531 -4.59231 -0.00000
v 8.24531 -2.69231 -0.00000
v 9.69531 -4.59231 0.00000
v 8.97031 -4.59231 1.25574
v 8.24531 -4.59231 -0.00000
v 9.69531 -2.69231 0.00000
v 8.24531 -2.69231 -0.00000
v 8.97031 -2.69231 1.25574
v 9.69531 -4.65231 0.00000
v 8.68031 -4.65231 0.00000
v 9.18781 -4.65231 -0.87902
v 9.69531 -4.65231 0.00000
v 9.18781 -4.65231 -0.87902
v 10.20281 -4.65231 -0.87902
v 9.69531 -4.65231 0.00000
v 10.20281 -4.65231 -0.87902
v 10.71031 -4.65231 0.00000
v 9.69531 -4.65231 0.00000
v 10.71031 -4.65231 0.00000
v 10.20281 -4.65231 0.87902
v 9.69531 -4.65231 0.00000
v 10.20281 -4.65231 0.87902
v 9.18781 -4.65231 0.87902
v 9.69531 -4.65231 0.00000
v 9.18781 -4.65231 0.87902
v 8.68031 -4.65231 -0.00000
vn -0.51886 0.85486 0.00000
vn -0.51886 0.85486 0.00000
vn -0.51886 0.85486 0.00000
vn -0.51886 0.85486 0.00000
vn -0.51886 0.85486 0.00000
vn -0.51886 0.85486 0.00000
vn -0.23927 0.39422 0.88732
vn -0.23927 0.39422 0.88732
vn -0.23927 0.39422 0.88732
vn -0.23799 0.39332 0.88807
vn -0.23799 0.39332 0.88807
vn -0.23799 0.39332 0.88807
vn -0.11525 0.18989 -0.97502
vn -0.11525 0.18989 -0.97502
vn -0.11525 0.18989 -0.97502
vn -0.11540 0.19078 -0.97483
vn -0.11540 0.19078 -0.97483
vn -0.11540 0.19078 -0.97483
vn -0.74974 0.66174 0.00000
vn -0.74974 0.66174 0.00000
vn -0.74974 0.66174 0.00000
vn -0.74974 0.66174 0.00000
vn -0.74974 0.66174 0.00000
vn -0.74974 0.66174 0.00000
vn -0.34313 0.30286 0.88912
vn -0.34313 0.30286 0.88912
vn -0.34313 0.30286 0.88912
vn -0.34663 0.30437 0.88725
vn -0.34663 0.30437 0.88725
vn -0.34663 0.30437 0.88725
vn -0.16713 0.14751 -0.97484
vn -0.16713 0.14751 -0.97484
vn -0.16713 0.14751 -0.97484
vn -0.16600 0.14556 -0.97532
vn -0.16600 0.14556 -0.97532
vn -0.16600 0.14556 -0.97532
vn -0.92464 0.38085 0.00000
vn -0.92464 0.38085 0.00000
vn -0.92464 0.38085 0.00000
vn -0.92464 0.38085 0.00000
vn -0.92464 0.38085 0.00000
vn -0.92464 0.38085 0.00000
vn -0.54181 0.22317 0.81033
vn -0.54181 0.22317 0.81033
vn -0.54181 0.22317 0.81033
vn -0.31872 0.33846 0.88536
vn -0.31872 0.33846 0.88536
vn -0.31872 0.33846 0.88536
vn -0.20425 0.08413 -0.97530
vn -0.20425 0.08413 -0.97530
vn -0.20425 0.08413 -0.97530
vn -0.31500 0.22306 -0.92251
vn -0.31500 0.22306 -0.92251
vn -0.31500 0.22306 -0.92251
vn -0.41973 -0.90765 0.00000
vn -0.41973 -0.90765 0.00000
vn -0.41973 -0.90765 0.00000
vn -0.41973 -0.90765 0.00000
vn -0.41973 -0.90765 0.00000
vn -0.41973 -0.90765 0.00000
vn -0.17159 -0.37106 0.91262
vn -0.17159 -0.37106 0.91262
vn -0.17159 -0.37106 0.91262
vn 0.00920 -0.82727 0.56173
vn 0.00920 -0.82727 0.56173
vn 0.00920 -0.82727 0.56173
vn -0.12726 -0.27520 -0.95293
vn -0.12726 -0.27520 -0.95293
vn -0.12726 -0.27520 -0.95293
vn 0.21457 -0.13642 -0.96713
vn 0.21457 -0.13642 -0.96713
vn 0.21457 -0.13642 -0.96713
vn 0.62908 -0.77734 0.00000
vn 0.62908 -0.77734 0.00000
vn 0.62908 -0.77734 0.00000
vn 0.62908 -0.77734 0.00000
vn 0.62908 -0.77734 0.00000
vn 0.62908 -0.77734 0.00000
vn 0.28763 -0.35542 0.88935
vn 0.28763 -0.35542 0.88935
vn 0.28763 -0.35542 0.88935
vn 0.21735 -0.32563 0.92018
vn 0.21735 -0.32563 0.92018
vn 0.21735 -0.32563 0.92018
vn 0.12165 -0.15032 -0.98112
vn 0.12165 -0.15032 -0.98112
vn 0.12165 -0.15032 -0.98112
vn 0.12596 -0.18129 -0.97533
vn 0.12596 -0.18129 -0.97533
vn 0.12596 -0.18129 -0.97533
vn 0.58396 -0.81178 0.00000
vn 0.58396 -0.81178 0.00000
vn 0.58396 -0.81178 0.00000
vn 0.58396 -0.81178 0.00000
vn 0.58396 -0.81178 0.00000
vn 0.58396 -0.81178 0.00000
vn 0.26524 -0.36872 0.89090
vn 0.26524 -0.36872 0.89090
vn 0.26524 -0.36872 0.89090
vn 0.26817 -0.37028 0.88937
vn 0.26817 -0.37028 0.88937
vn 0.26817 -0.37028 0.88937
vn 0.12884 -0.17911 -0.97536
vn 0.12884 -0.17911 -0.97536
vn 0.12884 -0.17911 -0.97536
vn 0.12836 -0.17738 -0.97573
vn 0.12836 -0.17738 -0.97573
vn 0.12836 -0.17738 -0.97573
vn 0.37509 -0.92699 0.00000
vn 0.37509 -0.92699 0.00000
vn 0.37509 -0.92699 0.00000
vn 0.37509 -0.92699 0.00000
vn 0.37509 -0.92699 0.00000
vn 0.37509 -0.92699 0.00000
vn 0.16923 -0.41823 0.89244
vn 0.16923 -0.41823 0.89244
vn 0.16923 -0.41823 0.89244
vn 0.17206 -0.42016 0.89099
vn 0.17206 -0.42016 0.89099
vn 0.17206 -0.42016 0.89099
vn 0.08210 -0.20290 -0.97575
vn 0.08210 -0.20290 -0.97575
vn 0.08210 -0.20290 -0.97575
vn 0.08228 -0.20107 -0.97612
vn 0.08228 -0.20107 -0.97612
vn 0.08228 -0.20107 -0.97612
vn 0.09666 -0.99532 0.00000
vn 0.09666 -0.99532 0.00000
vn 0.09666 -0.99532 0.00000
vn 0.09666 -0.99532 0.00000
vn 0.09666 -0.99532 0.00000
vn 0.09666 -0.99532 0.00000
vn 0.04588 -0.47248 0.88014
vn 0.04588 -0.47248 0.88014
vn 0.04588 -0.47248 0.88014
vn 0.01908 -0.45419 0.89070
vn 0.01908 -0.45419 0.89070
vn 0.01908 -0.45419 0.89070
vn 0.02099 -0.21612 -0.97614
vn 0.02099 -0.21612 -0.97614
vn 0.02099 -0.21612 -0.97614
vn 0.01074 -0.22986 -0.97316
vn 0.01074 -0.22986 -0.97316
vn 0.01074 -0.22986 -0.97316
vn -0.09666 -0.99532 0.00000
vn -0.09666 -0.99532 0.00000
vn -0.09666 -0.99532 0.00000
vn -0.09666 -0.99532 0.00000
vn -0.09666 -0.99532 0.00000
vn -0.09666 -0.99532 0.00000
vn -0.04361 -0.44906 0.89244
vn -0.04361 -0.44906 0.89244
vn -0.04361 -0.44906 0.89244
vn -0.02210 -0.47287 0.88086
vn -0.02210 -0.47287 0.88086
vn -0.02210 -0.47287 0.88086
vn -0.02232 -0.22982 -0.97298
vn -0.02232 -0.22982 -0.97298
vn -0.02232 -0.22982 -0.97298
vn -0.00919 -0.21891 -0.97570
vn -0.00919 -0.21891 -0.97570
vn -0.00919 -0.21891 -0.97570
vn -0.37509 -0.92699 0.00000
vn -0.37509 -0.92699 0.00000
vn -0.37509 -0.92699 0.00000
vn -0.37509 -0.92699 0.00000
vn -0.37509 -0.92699 0.00000
vn -0.37509 -0.92699 0.00000
vn -0.17037 -0.42104 0.89090
vn -0.17037 -0.42104 0.89090
vn -0.17037 -0.42104 0.89090
vn -0.17094 -0.41776 0.89233
vn -0.17094 -0.41776 0.89233
vn -0.17094 -0.41776 0.89233
vn -0.08145 -0.20128 -0.97614
vn -0.08145 -0.20128 -0.97614
vn -0.08145 -0.20128 -0.97614
vn -0.08291 -0.20246 -0.97577
vn -0.08291 -0.20246 -0.97577
vn -0.08291 -0.20246 -0.97577
vn -0.58396 -0.81178 0.00000
vn -0.58396 -0.81178 0.00000
vn -0.58396 -0.81178 0.00000
vn -0.58396 -0.81178 0.00000
vn -0.58396 -0.81178 0.00000
vn -0.58396 -0.81178 0.00000
vn -0.26700 -0.37116 0.88935
vn -0.26700 -0.37116 0.88935
vn -0.26700 -0.37116 0.88935
vn -0.26635 -0.36807 0.89083
vn -0.26635 -0.36807 0.89083
vn -0.26635 -0.36807 0.89083
vn -0.12782 -0.17769 -0.97575
vn -0.12782 -0.17769 -0.97575
vn -0.12782 -0.17769 -0.97575
vn -0.12940 -0.17868 -0.97536
vn -0.12940 -0.17868 -0.97536
vn -0.12940 -0.17868 -0.97536
vn -0.62908 -0.77734 0.00000
vn -0.62908 -0.77734 0.00000
vn -0.62908 -0.77734 0.00000
vn -0.62908 -0.77734 0.00000
vn -0.62908 -0.77734 0.00000
vn -0.62908 -0.77734 0.00000
vn -0.25718 -0.31779 0.91262
vn -0.25718 -0.31779 0.91262
vn -0.25718 -0.31779 0.91262
vn -0.26101 -0.37566 0.88924
vn -0.26101 -0.37566 0.88924
vn -0.26101 -0.37566 0.88924
vn -0.13880 -0.17151 -0.97536
vn -0.13880 -0.17151 -0.97536
vn -0.13880 -0.17151 -0.97536
vn -0.10215 -0.15305 -0.98292
vn -0.10215 -0.15305 -0.98292
vn -0.10215 -0.15305 -0.98292
vn 0.41973 -0.90765 0.00000
vn 0.41973 -0.90765 0.00000
vn 0.41973 -0.90765 0.00000
vn 0.41973 -0.90765 0.00000
vn 0.41973 -0.90765 0.00000
vn 0.41973 -0.90765 0.00000
vn 0.24595 -0.53186 0.81033
vn 0.24595 -0.53186 0.81033
vn 0.24595 -0.53186 0.81033
vn -0.43285 -0.27520 0.85843
vn -0.43285 -0.27520 0.85843
vn -0.43285 -0.27520 0.85843
vn 0.08117 -0.17552 -0.98112
vn 0.08117 -0.17552 -0.98112
vn 0.08117 -0.17552 -0.98112
vn -0.00605 -0.54380 -0.83919
vn -0.00605 -0.54380 -0.83919
vn -0.00605 -0.54380 -0.83919
vn 0.92464 0.38085 0.00000
vn 0.92464 0.38085 0.00000
vn 0.92464 0.38085 0.00000
vn 0.92464 0.38085 -0.00000
vn 0.92464 0.38085 -0.00000
vn 0.92464 0.38085 -0.00000
vn 0.42318 0.17430 0.88912
vn 0.42318 0.17430 0.88912
vn 0.42318 0.17430 0.88912
vn 0.56238 0.39823 0.72467
vn 0.56238 0.39823 0.72467
vn 0.56238 0.39823 0.72467
vn 0.28035 0.11547 -0.95293
vn 0.28035 0.11547 -0.95293
vn 0.28035 0.11547 -0.95293
vn 0.15433 0.16389 -0.97433
vn 0.15433 0.16389 -0.97433
vn 0.15433 0.16389 -0.97433
vn 0.74974 0.66174 0.00000
vn 0.74974 0.66174 0.00000
vn 0.74974 0.66174 0.00000
vn 0.74974 0.66174 -0.00000
vn 0.74974 0.66174 -0.00000
vn 0.74974 0.66174 -0.00000
vn 0.34574 0.30516 0.88732
vn 0.34574 0.30516 0.88732
vn 0.34574 0.30516 0.88732
vn 0.34397 0.30161 0.88922
vn 0.34397 0.30161 0.88922
vn 0.34397 0.30161 0.88922
vn 0.16561 0.14617 -0.97530
vn 0.16561 0.14617 -0.97530
vn 0.16561 0.14617 -0.97530
vn 0.16757 0.14714 -0.97482
vn 0.16757 0.14714 -0.97482
vn 0.16757 0.14714 -0.97482
vn 0.51886 0.85486 0.00000
vn 0.51886 0.85486 0.00000
vn 0.51886 0.85486 0.00000
vn 0.51886 0.85486 -0.00000
vn 0.51886 0.85486 -0.00000
vn 0.51886 0.85486 -0.00000
vn 0.23857 0.39306 0.88803
vn 0.23857 0.39306 0.88803
vn 0.23857 0.39306 0.88803
vn 0.23872 0.39465 0.88728
vn 0.23872 0.39465 0.88728
vn 0.23872 0.39465 0.88728
vn 0.11566 0.19057 -0.97484
vn 0.11566 0.19057 -0.97484
vn 0.11566 0.19057 -0.97484
vn 0.11497 0.19001 -0.97503
vn 0.11497 0.19001 -0.97503
vn 0.11497 0.19001 -0.97503
vn 0.21552 0.97650 0.00000
vn 0.21552 0.97650 0.00000
vn 0.21552 0.97650 0.00000
vn 0.21552 0.97650 -0.00000
vn 0.21552 0.97650 -0.00000
vn 0.21552 0.97650 -0.00000
vn 0.10663 0.48311 0.86904
vn 0.10663 0.48311 0.86904
vn 0.10663 0.48311 0.86904
vn 0.12291 0.44022 0.88944
vn 0.12291 0.44022 0.88944
vn 0.12291 0.44022 0.88944
vn 0.04787 0.21691 -0.97502
vn 0.04787 0.21691 -0.97502
vn 0.04787 0.21691 -0.97502
vn 0.06442 0.23710 -0.96935
vn 0.06442 0.23710 -0.96935
vn 0.06442 0.23710 -0.96935
vn -0.21552 0.97650 0.00000
vn -0.21552 0.97650 0.00000
vn -0.21552 0.97650 0.00000
vn -0.21552 0.97650 0.00000
vn -0.21552 0.97650 0.00000
vn -0.21552 0.97650 0.00000
vn -0.09910 0.44899 0.88803
vn -0.09910 0.44899 0.88803
vn -0.09910 0.44899 0.88803
vn -0.13087 0.48170 0.86651
vn -0.13087 0.48170 0.86651
vn -0.13087 0.48170 0.86651
vn -0.05237 0.23727 -0.97003
vn -0.05237 0.23727 -0.97003
vn -0.05237 0.23727 -0.97003
vn -0.05930 0.21241 -0.97538
vn -0.05930 0.21241 -0.97538
vn -0.05930 0.21241 -0.97538
vn -0.04281 0.04269 0.99817
vn -0.04281 0.04269 0.99817
vn -0.04281 0.04269 0.99817
vn -0.01887 0.01881 -0.99964
vn -0.01887 0.01881 -0.99964
vn -0.01887 0.01881 -0.99964
vn -0.01094 -0.03657 0.99927
vn -0.01094 -0.03657 0.99927
vn -0.01094 -0.03657 0.99927
vn -0.00482 -0.01610 -0.99986
vn -0.00482 -0.01610 -0.99986
vn -0.00482 -0.01610 -0.99986
vn 0.53471 -0.01420 0.84491
vn 0.53471 -0.01420 0.84491
vn 0.53471 -0.01420 0.84491
vn 0.26825 -0.00712 -0.96332
vn 0.26825 -0.00712 -0.96332
vn 0.26825 -0.00712 -0.96332
vn -0.01528 -0.05290 0.99848
vn -0.01528 -0.05290 0.99848
vn -0.01528 -0.05290 0.99848
vn -0.00673 -0.02330 -0.99971
vn -0.00673 -0.02330 -0.99971
vn -0.00673 -0.02330 -0.99971
vn -0.01705 -0.01891 0.99968
vn -0.01705 -0.01891 0.99968
vn -0.01705 -0.01891 0.99968
vn -0.00750 -0.00832 -0.99994
vn -0.00750 -0.00832 -0.99994
vn -0.00750 -0.00832 -0.99994
vn 0.01434 -0.07868 0.99680
vn 0.01434 -0.07868 0.99680
vn 0.01434 -0.07868 0.99680
vn 0.00633 -0.03471 -0.99938
vn 0.00633 -0.03471 -0.99938
vn 0.00633 -0.03471 -0.99938
vn 0.01615 -0.08137 0.99655
vn 0.01615 -0.08137 0.99655
vn 0.01615 -0.08137 0.99655
vn 0.00713 -0.03590 -0.99933
vn 0.00713 -0.03590 -0.99933
vn 0.00713 -0.03590 -0.99933
vn -0.04547 -0.01894 0.99879
vn -0.04547 -0.01894 0.99879
vn -0.04547 -0.01894 0.99879
vn -0.02003 -0.00834 -0.99976
vn -0.02003 -0.00834 -0.99976
vn -0.02003 -0.00834 -0.99976
vn 0.04547 -0.01894 0.99879
vn 0.04547 -0.01894 0.99879
vn 0.04547 -0.01894 0.99879
vn 0.02003 -0.00834 -0.99976
vn 0.02003 -0.00834 -0.99976
vn 0.02003 -0.00834 -0.99976
vn -0.01615 -0.08137 0.99655
vn -0.01615 -0.08137 0.99655
vn -0.01615 -0.08137 0.99655
vn -0.00713 -0.03590 -0.99933
vn -0.00713 -0.03590 -0.99933
vn -0.00713 -0.03590 -0.99933
vn -0.33356 -0.45782 0.82410
vn -0.33356 -0.45782 0.82410
vn -0.33356 -0.45782 0.82410
vn -0.17047 -0.23397 -0.95718
vn -0.17047 -0.23397 -0.95718
vn -0.17047 -0.23397 -0.95718
vn -0.32465 -0.43867 0.83796
vn -0.32465 -0.43867 0.83796
vn -0.32465 -0.43867 0.83796
vn -0.16387 -0.22143 -0.96131
vn -0.16387 -0.22143 -0.96131
vn -0.16387 -0.22143 -0.96131
vn 0.17996 0.29527 0.93831
vn 0.17996 0.29527 0.93831
vn 0.17996 0.29527 0.93831
vn 0.08330 0.13667 -0.98711
vn 0.08330 0.13667 -0.98711
vn 0.08330 0.13667 -0.98711
vn -0.01434 -0.07868 0.99680
vn -0.01434 -0.07868 0.99680
vn -0.01434 -0.07868 0.99680
vn -0.00633 -0.03471 -0.99938
vn -0.00633 -0.03471 -0.99938
vn -0.00633 -0.03471 -0.99938
vn 0.01094 -0.03657 0.99927
vn 0.01094 -0.03657 0.99927
vn 0.01094 -0.03657 0.99927
vn 0.00482 -0.01610 -0.99986
vn 0.00482 -0.01610 -0.99986
vn 0.00482 -0.01610 -0.99986
vn 0.04281 0.04269 0.99817
vn 0.04281 0.04269 0.99817
vn 0.04281 0.04269 0.99817
vn 0.01887 0.01881 -0.99964
vn 0.01887 0.01881 -0.99964
vn 0.01887 0.01881 -0.99964
vn -0.00000 -0.00000 -1.00000
vn -0.00000 -0.00000 -1.00000
vn -0.00000 -0.00000 -1.00000
vn -0.59260 -0.80549 0.00000
vn -0.59260 -0.80549 0.00000
vn -0.59260 -0.80549 0.00000
vn -0.59260 -0.80549 0.00000
vn -0.59260 -0.80549 0.00000
vn -0.59260 -0.80549 0.00000
vn -0.00000 0.00000 -1.00000
vn -0.00000 0.00000 -1.00000
vn -0.00000 0.00000 -1.00000
vn -1.00000 0.00000 0.00000
vn -1.00000 0.00000 0.00000
vn -1.00000 0.00000 0.00000
vn -1.00000 0.00000 0.00000
vn -1.00000 0.00000 0.00000
vn -1.00000 0.00000 0.00000
vn -0.00000 0.00000 -1.00000
vn -0.00000 0.00000 -1.00000
vn -0.00000 0.00000 -1.00000
vn -0.48311 0.87556 0.00000
vn -0.48311 0.87556 0.00000
vn -0.48311 0.87556 0.00000
vn -0.48311 0.87556 0.00000
vn -0.48311 0.87556 0.00000
vn -0.48311 0.87556 0.00000
vn 0.00000 0.00000 -1.00000
vn 0.00000 0.00000 -1.00000
vn 0.00000 0.00000 -1.00000
vn 0.48311 0.87556 0.00000
vn 0.48311 0.87556 0.00000
vn 0.48311 0.87556 0.00000
vn 0.48311 0.87556 -0.00000
vn 0.48311 0.87556 -0.00000
vn 0.48311 0.87556 -0.00000
vn 0.00000 0.00000 -1.00000
vn 0.00000 0.00000 -1.00000
vn 0.00000 0.00000 -1.00000
vn 1.00000 0.00000 0.00000
vn 1.00000 0.00000 0.00000
vn 1.00000 0.00000 0.00000
vn 1.00000 0.00000 0.00000
vn 1.00000 0.00000 0.00000
vn 1.00000 0.00000 0.00000
vn 0.00000 -0.00000 -1.00000
vn 0.00000 -0.00000 -1.00000
vn 0.00000 -0.00000 -1.00000
vn 0.59260 -0.80549 0.00000
vn 0.59260 -0.80549 0.00000
vn 0.59260 -0.80549 0.00000
vn 0.59260 -0.80549 0.00000
vn 0.59260 -0.80549 0.00000
vn 0.59260 -0.80549 0.00000
vn 0.00000 0.00000 -1.00000
vn 0.00000 0.00000 -1.00000
vn 0.00000 0.00000 -1.00000
vn -0.53270 -0.84631 0.00000
vn -0.53270 -0.84631 0.00000
vn -0.53270 -0.84631 0.00000
vn -0.53270 -0.84631 0.00000
vn -0.53270 -0.84631 0.00000
vn -0.53270 -0.84631 0.00000
vn 0.00000 0.00000 -1.00000
vn 0.00000 0.00000 -1.00000
vn 0.00000 0.00000 -1.00000
vn -0.78608 0.61812 0.00000
vn -0.78608 0.61812 0.00000
vn -0.78608 0.61812 0.00000
vn -0.78608 0.61812 0.00000
vn -0.78608 0.61812 0.00000
vn -0.78608 0.61812 0.00000
vn -0.00000 -0.00000 -1.00000
vn -0.00000 -0.00000 -1.00000
vn -0.00000 -0.00000 -1.00000
vn 0.60592 0.79552 0.00000
vn 0.60592 0.79552 0.00000
vn 0.60592 0.79552 0.00000
vn 0.60592 0.79552 -0.00000
vn 0.60592 0.79552 -0.00000
vn 0.60592 0.79552 -0.00000
vn 0.00000 0.00000 -1.00000
vn 0.00000 0.00000 -1.00000
vn 0.00000 0.00000 -1.00000
vn 0.77183 -0.63582 0.00000
vn 0.77183 -0.63582 0.00000
vn 0.77183 -0.63582 0.00000
vn 0.77183 -0.63582 0.00000
vn 0.77183 -0.63582 0.00000
vn 0.77183 -0.63582 0.00000
vn 0.00000 -0.00000 -1.00000
vn 0.00000 -0.00000 -1.00000
vn 0.00000 -0.00000 -1.00000
vn -0.60592 0.79552 0.00000
vn -0.60592 0.79552 0.00000
vn -0.60592 0.79552 0.00000
vn -0.60592 0.79552 0.00000
vn -0.60592 0.79552 0.00000
vn -0.60592 0.79552 0.00000
vn 0.00000 0.00000 -1.00000
vn 0.00000 0.00000 -1.00000
vn 0.00000 0.00000 -1.00000
vn 0.78608 0.61812 0.00000
vn 0.78608 0.61812 0.00000
vn 0.78608 0.61812 0.00000
vn 0.78608 0.61812 -0.00000
vn 0.78608 0.61812 -0.00000
vn 0.78608 0.61812 -0.00000
vn -0.00000 0.00000 -1.00000
vn -0.00000 0.00000 -1.00000
vn -0.00000 0.00000 -1.00000
vn 0.53270 -0.84631 0.00000
vn 0.53270 -0.84631 0.00000
vn 0.53270 -0.84631 0.00000
vn 0.53270 -0.84631 0.00000
vn 0.53270 -0.84631 0.00000
vn 0.53270 -0.84631 0.00000
vn 0.00000 0.00000 -1.00000
vn 0.00000 0.00000 -1.00000
vn 0.00000 0.00000 -1.00000
vn -0.77183 -0.63582 0.00000
vn -0.77183 -0.63582 0.00000
vn -0.77183 -0.63582 0.00000
vn -0.77183 -0.63582 0.00000
vn -0.77183 -0.63582 0.00000
vn -0.77183 -0.63582 0.00000
vn -0.86603 0.00000 0.50000
vn -0.86603 0.00000 0.50000
vn -0.86603 0.00000 0.50000
vn -0.86603 0.00000 0.50000
vn -0.86603 0.00000 0.50000
vn -0.86603 0.00000 0.50000
vn -0.00000 1.00000 0.00000
vn -0.00000 1.00000 0.00000
vn -0.00000 1.00000 0.00000
vn 0.00000 -1.00000 0.00000
vn 0.00000 -1.00000 0.00000
vn 0.00000 -1.00000 0.00000
vn 0.00000 -0.00000 1.00000
vn 0.00000 -0.00000 1.00000
vn 0.00000 -0.00000 1.00000
vn 0.00000 0.00000 1.00000
vn 0.00000 0.00000 1.00000
vn 0.00000 0.00000 1.00000
vn 0.00000 1.00000 0.00000
vn 0.00000 1.00000 0.00000
vn 0.00000 1.00000 0.00000
vn 0.00000 -1.00000 -0.00000
vn 0.00000 -1.00000 -0.00000
vn 0.00000 -1.00000 -0.00000
vn 0.86603 -0.00000 0.50000
vn 0.86603 -0.00000 0.50000
vn 0.86603 -0.00000 0.50000
vn 0.86603 0.00000 0.50000
vn 0.86603 0.00000 0.50000
vn 0.86603 0.00000 0.50000
vn 0.00000 1.00000 0.00000
vn 0.00000 1.00000 0.00000
vn 0.00000 1.00000 0.00000
vn -0.00000 -1.00000 0.00000
vn -0.00000 -1.00000 0.00000
vn -0.00000 -1.00000 0.00000
vn 0.86603 0.00000 -0.50000
vn 0.86603 0.00000 -0.50000
vn 0.86603 0.00000 -0.50000
vn 0.86603 0.00000 -0.50000
vn 0.86603 0.00000 -0.50000
vn 0.86603 0.00000 -0.50000
vn 0.00000 1.00000 0.00000
vn 0.00000 1.00000 0.00000
vn 0.00000 1.00000 0.00000
vn 0.00000 -1.00000 0.00000
vn 0.00000 -1.00000 0.00000
vn 0.00000 -1.00000 0.00000
vn 0.00000 0.00000 -1.00000
vn 0.00000 0.00000 -1.00000
vn 0.00000 0.00000 -1.00000
vn 0.00000 0.00000 -1.00000
vn 0.00000 0.00000 -1.00000
vn 0.00000 0.00000 -1.00000
vn 0.00000 1.00000 -0.00000
vn 0.00000 1.00000 -0.00000
vn 0.00000 1.00000 -0.00000
vn 0.00000 -1.00000 0.00000
vn 0.00000 -1.00000 0.00000
vn 0.00000 -1.00000 0.00000
vn -0.86603 0.00000 -0.50000
vn -0.86603 0.00000 -0.50000
vn -0.86603 0.00000 -0.50000
vn -0.86603 0.00000 -0.50000
vn -0.86603 0.00000 -0.50000
vn -0.86603 0.00000 -0.50000
vn -0.00000 1.00000 0.00000
vn -0.00000 1.00000 0.00000
vn -0.00000 1.00000 0.00000
vn 0.00000 -1.00000 0.00000
vn 0.00000 -1.00000 0.00000
vn 0.00000 -1.00000 0.00000
vn -0.00000 1.00000 0.00000
vn -0.00000 1.00000 0.00000
vn -0.00000 1.00000 0.00000
vn 0.00000 1.00000 0.00000
vn 0.00000 1.00000 0.00000
vn 0.00000 1.00000 0.00000
vn 0.00000 1.00000 0.00000
vn 0.00000 1.00000 0.00000
vn 0.00000 1.00000 0.00000
vn 0.00000 1.00000 0.00000
vn 0.00000 1.00000 0.00000
vn 0.00000 1.00000 0.00000
vn 0.00000 1.00000 -0.00000
vn 0.00000 1.00000 -0.00000
vn 0.00000 1.00000 -0.00000
vn -0.00000 1.00000 0.00000
vn -0.00000 1.00000 0.00000
vn -0.00000 1.00000 0.00000
vn -0.86603 0.00000 0.50000
vn -0.86603 0.00000 0.50000
vn -0.86603 0.00000 0.50000
vn -0.86603 0.00000 0.50000
vn -0.86603 0.00000 0.50000
vn -0.86603 0.00000 0.50000
vn -0.00000 1.00000 0.00000
vn -0.00000 1.00000 0.00000
vn -0.00000 1.00000 0.00000
vn 0.00000 -1.00000 0.00000
vn 0.00000 -1.00000 0.00000
vn 0.00000 -1.00000 0.00000
vn 0.00000 -0.00000 1.00000
vn 0.00000 -0.00000 1.00000
vn 0.00000 -0.00000 1.00000
vn 0.00000 0.00000 1.00000
vn 0.00000 0.00000 1.00000
vn 0.00000 0.00000 1.00000
vn 0.00000 1.00000 0.00000
vn 0.00000 1.00000 0.00000
vn 0.00000 1.00000 0.00000
vn 0.00000 -1.00000 -0.00000
vn 0.00000 -1.00000 -0.00000
vn 0.00000 -1.00000 -0.00000
vn 0.86603 -0.00000 0.50000
vn 0.86603 -0.00000 0.50000
vn 0.86603 -0.00000 0.50000
vn 0.86603 0.00000 0.50000
vn 0.86603 0.00000 0.50000
vn 0.86603 0.00000 0.50000
vn 0.00000 1.00000 0.00000
vn 0.00000 1.00000 0.00000
vn 0.00000 1.00000 0.00000
vn -0.00000 -1.00000 0.00000
vn -0.00000 -1.00000 0.00000
vn -0.00000 -1.00000 0.00000
vn 0.86603 0.00000 -0.50000
vn 0.86603 0.00000 -0.50000
vn 0.86603 0.00000 -0.50000
vn 0.86603 0.00000 -0.50000
vn 0.86603 0.00000 -0.50000
vn 0.86603 0.00000 -0.50000
vn 0.00000 1.00000 0.00000
vn 0.00000 1.00000 0.00000
vn 0.00000 1.00000 0.00000
vn 0.00000 -1.00000 0.00000
vn 0.00000 -1.00000 0.00000
vn 0.00000 -1.00000 0.00000
vn 0.00000 0.00000 -1.00000
vn 0.00000 0.00000 -1.00000
vn 0.00000 0.00000 -1.00000
vn 0.00000 0.00000 -1.00000
vn 0.00000 0.00000 -1.00000
vn 0.00000 0.00000 -1.00000
vn 0.00000 1.00000 -0.00000
vn 0.00000 1.00000 -0.00000
vn 0.00000 1.00000 -0.00000
vn 0.00000 -1.00000 0.00000
vn 0.00000 -1.00000 0.00000
vn 0.00000 -1.00000 0.00000
vn -0.86603 0.00000 -0.50000
vn -0.86603 0.00000 -0.50000
vn -0.86603 0.00000 -0.50000
vn -0.86603 0.00000 -0.50000
vn -0.86603 0.00000 -0.50000
vn -0.86603 0.00000 -0.50000
vn -0.00000 1.00000 0.00000
vn -0.00000 1.00000 0.00000
vn -0.00000 1.00000 0.00000
vn 0.00000 -1.00000 0.00000
vn 0.00000 -1.00000 0.00000
vn 0.00000 -1.00000 0.00000
vn -0.00000 1.00000 0.00000
vn -0.00000 1.00000 0.00000
vn -0.00000 1.00000 0.00000
vn 0.00000 1.00000 0.00000
vn 0.00000 1.00000 0.00000
vn 0.00000 1.00000 0.00000
vn 0.00000 1.00000 0.00000
vn 0.00000 1.00000 0.00000
vn 0.00000 1.00000 0.00000
vn 0.00000 1.00000 0.00000
vn 0.00000 1.00000 0.00000
vn 0.00000 1.00000 0.00000
vn 0.00000 1.00000 -0.00000
vn 0.00000 1.00000 -0.00000
vn 0.00000 1.00000 -0.00000
vn -0.00000 1.00000 0.00000
vn -0.00000 1.00000 0.00000
vn -0.00000 1.00000 0.00000
vn 0.86286 0.35741 0.35741
vn 0.86286 0.35741 0.35741
vn 0.86286 0.35741 0.35741
vn 0.86286 0.35741 0.35741
vn 0.86286 0.35741 0.35741
vn 0.86286 0.35741 0.35741
vn 0.35741 0.86286 0.35741
vn 0.35741 0.86286 0.35741
vn 0.35741 0.86286 0.35741
vn 0.35741 0.86286 0.35741
vn 0.35741 0.86286 0.35741
vn 0.35741 0.86286 0.35741
vn -0.35741 0.86286 0.35741
vn -0.35741 0.86286 0.35741
vn -0.35741 0.86286 0.35741
vn -0.35741 0.86286 0.35741
vn -0.35741 0.86286 0.35741
vn -0.35741 0.86286 0.35741
vn -0.86286 0.35741 0.35741
vn -0.86286 0.35741 0.35741
vn -0.86286 0.35741 0.35741
vn -0.86286 0.35741 0.35741
vn -0.86286 0.35741 0.35741
vn -0.86286 0.35741 0.35741
vn -0.86286 -0.35741 0.35741
vn -0.86286 -0.35741 0.35741
vn -0.86286 -0.35741 0.35741
vn -0.86286 -0.35741 0.35741
vn -0.86286 -0.35741 0.35741
vn -0.86286 -0.35741 0.35741
vn -0.35741 -0.86286 0.35741
vn -0.35741 -0.86286 0.35741
vn -0.35741 -0.86286 0.35741
vn -0.35741 -0.86286 0.35741
vn -0.35741 -0.86286 0.35741
vn -0.35741 -0.86286 0.35741
vn 0.35741 -0.86286 0.35741
vn 0.35741 -0.86286 0.35741
vn 0.35741 -0.86286 0.35741
vn 0.35741 -0.86286 0.35741
vn 0.35741 -0.86286 0.35741
vn 0.35741 -0.86286 0.35741
vn 0.86286 -0.35741 0.35741
vn 0.86286 -0.35741 0.35741
vn 0.86286 -0.35741 0.35741
vn 0.86286 -0.35741 0.35741
vn 0.86286 -0.35741 0.35741
vn 0.86286 -0.35741 0.35741
vn 0.37796 0.15656 0.91249
vn 0.37796 0.15656 0.91249
vn 0.37796 0.15656 0.91249
vn 0.15656 0.37796 0.91249
vn 0.15656 0.37796 0.91249
vn 0.15656 0.37796 0.91249
vn -0.15656 0.37796 0.91249
vn -0.15656 0.37796 0.91249
vn -0.15656 0.37796 0.91249
vn -0.37796 0.15656 0.91249
vn -0.37796 0.15656 0.91249
vn -0.37796 0.15656 0.91249
vn -0.37796 -0.15656 0.91249
vn -0.37796 -0.15656 0.91249
vn -0.37796 -0.15656 0.91249
vn -0.15656 -0.37796 0.91249
vn -0.15656 -0.37796 0.91249
vn -0.15656 -0.37796 0.91249
vn 0.15656 -0.37796 0.91249
vn 0.15656 -0.37796 0.91249
vn 0.15656 -0.37796 0.91249
vn 0.37796 -0.15656 0.91249
vn 0.37796 -0.15656 0.91249
vn 0.37796 -0.15656 0.91249
vn -0.37179 -0.72114 -0.58458
vn -0.37179 -0.72114 -0.58458
vn -0.37179 -0.72114 -0.58458
vn -0.38067 0.75813 -0.52947
vn -0.38067 0.75813 -0.52947
vn -0.38067 0.75813 -0.52947
vn 0.38067 0.75813 -0.52947
vn 0.38067 0.75813 -0.52947
vn 0.38067 0.75813 -0.52947
vn 0.37179 -0.72114 -0.58458
vn 0.37179 -0.72114 -0.58458
vn 0.37179 -0.72114 -0.58458
vn 0.86603 0.00000 0.50000
vn 0.86603 0.00000 0.50000
vn 0.86603 0.00000 0.50000
vn 0.86603 0.00000 0.50000
vn 0.86603 0.00000 0.50000
vn 0.86603 0.00000 0.50000
vn -0.00000 -1.00000 0.00000
vn -0.00000 -1.00000 0.00000
vn -0.00000 -1.00000 0.00000
vn 0.00000 1.00000 0.00000
vn 0.00000 1.00000 0.00000
vn 0.00000 1.00000 0.00000
vn -0.00000 0.00000 1.00000
vn -0.00000 0.00000 1.00000
vn -0.00000 0.00000 1.00000
vn -0.00000 0.00000 1.00000
vn -0.00000 0.00000 1.00000
vn -0.00000 0.00000 1.00000
vn 0.00000 -1.00000 -0.00000
vn 0.00000 -1.00000 -0.00000
vn 0.00000 -1.00000 -0.00000
vn 0.00000 1.00000 0.00000
vn 0.00000 1.00000 0.00000
vn 0.00000 1.00000 0.00000
vn -0.86603 0.00000 0.50000
vn -0.86603 0.00000 0.50000
vn -0.86603 0.00000 0.50000
vn -0.86603 0.00000 0.50000
vn -0.86603 0.00000 0.50000
vn -0.86603 0.00000 0.50000
vn 0.00000 -1.00000 0.00000
vn 0.00000 -1.00000 0.00000
vn 0.00000 -1.00000 0.00000
vn -0.00000 1.00000 0.00000
vn -0.00000 1.00000 0.00000
vn -0.00000 1.00000 0.00000
vn -0.86603 -0.00000 -0.50000
vn -0.86603 -0.00000 -0.50000
vn -0.86603 -0.00000 -0.50000
vn -0.86603 0.00000 -0.50000
vn -0.86603 0.00000 -0.50000
vn -0.86603 0.00000 -0.50000
vn 0.00000 -1.00000 0.00000
vn 0.00000 -1.00000 0.00000
vn 0.00000 -1.00000 0.00000
vn 0.00000 1.00000 0.00000
vn 0.00000 1.00000 0.00000
vn 0.00000 1.00000 0.00000
vn 0.00000 -0.00000 -1.00000
vn 0.00000 -0.00000 -1.00000
vn 0.00000 -0.00000 -1.00000
vn -0.00000 0.00000 -1.00000
vn -0.00000 0.00000 -1.00000
vn -0.00000 0.00000 -1.00000
vn 0.00000 -1.00000 0.00000
vn 0.00000 -1.00000 0.00000
vn 0.00000 -1.00000 0.00000
vn 0.00000 1.00000 -0.00000
vn 0.00000 1.00000 -0.00000
vn 0.00000 1.00000 -0.00000
vn 0.86603 0.00000 -0.50000
vn 0.86603 0.00000 -0.50000
vn 0.86603 0.00000 -0.50000
vn 0.86603 0.00000 -0.50000
vn 0.86603 0.00000 -0.50000
vn 0.86603 0.00000 -0.50000
vn -0.00000 -1.00000 0.00000
vn -0.00000 -1.00000 0.00000
vn -0.00000 -1.00000 0.00000
vn 0.00000 1.00000 0.00000
vn 0.00000 1.00000 0.00000
vn 0.00000 1.00000 0.00000
vn -0.00000 -1.00000 0.00000
vn -0.00000 -1.00000 0.00000
vn -0.00000 -1.00000 0.00000
vn 0.00000 -1.00000 -0.00000
vn 0.00000 -1.00000 -0.00000
vn 0.00000 -1.00000 -0.00000
vn 0.00000 -1.00000 0.00000
vn 0.00000 -1.00000 0.00000
vn 0.00000 -1.00000 0.00000
vn 0.00000 -1.00000 0.00000
vn 0.00000 -1.00000 0.00000
vn 0.00000 -1.00000 0.00000
vn 0.00000 -1.00000 0.00000
vn 0.00000 -1.00000 0.00000
vn 0.00000 -1.00000 0.00000
vn -0.00000 -1.00000 0.00000
vn -0.00000 -1.00000 0.00000
vn -0.00000 -1.00000 0.00000
vn 0.86603 0.00000 0.50000
vn 0.86603 0.00000 0.50000
vn 0.86603 0.00000 0.50000
vn 0.86603 0.00000 0.50000
vn 0.86603 0.00000 0.50000
vn 0.86603 0.00000 0.50000
vn -0.00000 -1.00000 0.00000
vn -0.00000 -1.00000 0.00000
vn -0.00000 -1.00000 0.00000
vn 0.00000 1.00000 0.00000
vn 0.00000 1.00000 0.00000
vn 0.00000 1.00000 0.00000
vn -0.00000 0.00000 1.00000
vn -0.00000 0.00000 1.00000
vn -0.00000 0.00000 1.00000
vn -0.00000 0.00000 1.00000
vn -0.00000 0.00000 1.00000
vn -0.00000 0.00000 1.00000
vn 0.00000 -1.00000 -0.00000
vn 0.00000 -1.00000 -0.00000
vn 0.00000 -1.00000 -0.00000
vn 0.00000 1.00000 0.00000
vn 0.00000 1.00000 0.00000
vn 0.00000 1.00000 0.00000
vn -0.86603 0.00000 0.50000
vn -0.86603 0.00000 0.50000
vn -0.86603 0.00000 0.50000
vn -0.86603 0.00000 0.50000
vn -0.86603 0.00000 0.50000
vn -0.86603 0.00000 0.50000
vn 0.00000 -1.00000 0.00000
vn 0.00000 -1.00000 0.00000
vn 0.00000 -1.00000 0.00000
vn -0.00000 1.00000 0.00000
vn -0.00000 1.00000 0.00000
vn -0.00000 1.00000 0.00000
vn -0.86603 -0.00000 -0.50000
vn -0.86603 -0.00000 -0.50000
vn -0.86603 -0.00000 -0.50000
vn -0.86603 0.00000 -0.50000
vn -0.86603 0.00000 -0.50000
vn -0.86603 0.00000 -0.50000
vn 0.00000 -1.00000 0.00000
vn 0.00000 -1.00000 0.00000
vn 0.00000 -1.00000 0.00000
vn 0.00000 1.00000 0.00000
vn 0.00000 1.00000 0.00000
vn 0.00000 1.00000 0.00000
vn 0.00000 -0.00000 -1.00000
vn 0.00000 -0.00000 -1.00000
vn 0.00000 -0.00000 -1.00000
vn -0.00000 0.00000 -1.00000
vn -0.00000 0.00000 -1.00000
vn -0.00000 0.00000 -1.00000
vn 0.00000 -1.00000 0.00000
vn 0.00000 -1.00000 0.00000
vn 0.00000 -1.00000 0.00000
vn 0.00000 1.00000 -0.00000
vn 0.00000 1.00000 -0.00000
vn 0.00000 1.00000 -0.00000
vn 0.86603 0.00000 -0.50000
vn 0.86603 0.00000 -0.50000
vn 0.86603 0.00000 -0.50000
vn 0.86603 0.00000 -0.50000
vn 0.86603 0.00000 -0.50000
vn 0.86603 0.00000 -0.50000
vn -0.00000 -1.00000 0.00000
vn -0.00000 -1.00000 0.00000
vn -0.00000 -1.00000 0.00000
vn 0.00000 1.00000 0.00000
vn 0.00000 1.00000 0.00000
vn 0.00000 1.00000 0.00000
vn -0.00000 -1.00000 0.00000
vn -0.00000 -1.00000 0.00000
vn -0.00000 -1.00000 0.00000
vn 0.00000 -1.00000 -0.00000
vn 0.00000 -1.00000 -0.00000
vn 0.00000 -1.00000 -0.00000
vn 0.00000 -1.00000 0.00000
vn 0.00000 -1.00000 0.00000
vn 0.00000 -1.00000 0.00000
vn 0.00000 -1.00000 0.00000
vn 0.00000 -1.00000 0.00000
vn 0.00000 -1.00000 0.00000
vn 0.00000 -1.00000 0.00000
vn 0.00000 -1.00000 0.00000
vn 0.00000 -1.00000 0.00000
vn -0.00000 -1.00000 0.00000
vn -0.00000 -1.00000 0.00000
vn -0.00000 -1.00000 0.00000
f 1//1 2//2 3//3
f 4//4 5//5 6//6
f 7//7 8//8 9//9
f 10//10 11//11 12//12
f 13//13 14//14 15//15
f 16//16 17//17 18//18
f 19//19 20//20 21//21
f 22//22 23//23 24//24
f 25//25 26//26 27//27
f 28//28 29//29 30//30
f 31//31 32//32 33//33
f 34//34 35//35 36//36
f 37//37 38//38 39//39
f 40//40 41//41 42//42
f 43//43 44//44 45//45
f 46//46 47//47 48//48
f 49//49 50//50 51//51
f 52//52 53//53 54//54
f 55//55 56//56 57//57
f 58//58 59//59 60//60
f 61//61 62//62 63//63
f 64//64 65//65 66//66
f 67//67 68//68 69//69
f 70//70 71//71 72//72
f 73//73 74//74 75//75
f 76//76 77//77 78//78
f 79//79 80//80 81//81
f 82//82 83//83 84//84
f 85//85 86//86 87//87
f 88//88 89//89 90//90
f 91//91 92//92 93//93
f 94//94 95//95 96//96
f 97//97 98//98 99//99
f 100//100 101//101 102//102
f 103//103 104//104 105//105
f 106//106 107//107 108//108
f 109//109 110//110 111//111
f 112//112 113//113 114//114
f 115//115 116//116 117//117
f 118//118 119//119 120//120
f 121//121 122//122 123//123
f 124//124 125//125 126//126
f 127//127 128//128 129//129
f 130//130 131//131 132//132
f 133//133 134//134 135//135
f 136//136 137//137 138//138
f 139//139 140//140 141//141
f 142//142 143//143 144//144
f 145//145 146//146 147//147
f 148//148 149//149 150//150
f 151//151 152//152 153//153
f 154//154 155//155 156//156
f 157//157 158//158 159//159
f 160//160 161//161 162//162
f 163//163 164//164 165//165
f 166//166 167//167 168//168
f 169//169 170//170 171//171
f 172//172 173//173 174//174
f 175//175 176//176 177//177
f 178//178 179//179 180//180
f 181//181 182//182 183//183
f 184//184 185//185 186//186
f 187//187 188//188 189//189
f 190//190 191//191 192//192
f 193//193 194//194 195//195
f 196//196 197//197 198//198
f 199//199 200//200 201//201
f 202//202 203//203 204//204
f 205//205 206//206 207//207
f 208//208 209//209 210//210
f 211//211 212//212 213//213
f 214//214 215//215 216//216
f 217//217 218//218 219//219
f 220//220 221//221 222//222
f 223//223 224//224 225//225
f 226//226 227//227 228//228
f 229//229 230//230 231//231
f 232//232 233//233 234//234
f 235//235 236//236 237//237
f 238//238 239//239 240//240
f 241//241 242//242 243//243
f 244//244 245//245 246//246
f 247//247 248//248 249//249
f 250//250 251//251 252//252
f 253//253 254//254 255//255
f 256//256 257//257 258//258
f 259//259 260//260 261//261
f 262//262 263//263 264//264
f 265//265 266//266 267//267
f 268//268 269//269 270//270
f 271//271 272//272 273//273
f 274//274 275//275 276//276
f 277//277 278//278 279//279
f 280//280 281//281 282//282
f 283//283 284//284 285//285
f 286//286 287//287 288//288
f 289//289 290//290 291//291
f 292//292 293//293 294//294
f 295//295 296//296 297//297
f 298//298 299//299 300//300
f 301//301 302//302 303//303
f 304//304 305//305 306//306
f 307//307 308//308 309//309
f 310//310 311//311 312//312
f 313//313 314//314 315//315
f 316//316 317//317 318//318
f 319//319 320//320 321//321
f 322//322 323//323 324//324
f 325//325 326//326 327//327
f 328//328 329//329 330//330
f 331//331 332//332 333//333
f 334//334 335//335 336//336
f 337//337 338//338 339//339
f 340//340 341//341 342//342
f 343//343 344//344 345//345
f 346//346 347//347 348//348
f 349//349 350//350 351//351
f 352//352 353//353 354//354
f 355//355 356//356 357//357
f 358//358 359//359 360//360
f 361//361 362//362 363//363
f 364//364 365//365 366//366
f 367//367 368//368 369//369
f 370//370 371//371 372//372
f 373//373 374//374 375//375
f 376//376 377//377 378//378
f 379//379 380//380 381//381
f 382//382 383//383 384//384
f 385//385 386//386 387//387
f 388//388 389//389 390//390
f 391//391 392//392 393//393
f 394//394 395//395 396//396
f 397//397 398//398 399//399
f 400//400 401//401 402//402
f 403//403 404//404 405//405
f 406//406 407//407 408//408
f 409//409 410//410 411//411
f 412//412 413//413 414//414
f 415//415 416//416 417//417
f 418//418 419//419 420//420
f 421//421 422//422 423//423
f 424//424 425//425 426//426
f 427//427 428//428 429//429
f 430//430 431//431 432//432
f 433//433 434//434 435//435
f 436//436 437//437 438//438
f 439//439 440//440 441//441
f 442//442 443//443 444//444
f 445//445 446//446 447//447
f 448//448 449//449 450//450
f 451//451 452//452 453//453
f 454//454 455//455 456//456
f 457//457 458//458 459//459
f 460//460 461//461 462//462
f 463//463 464//464 465//465
f 466//466 467//467 468//468
f 469//469 470//470 471//471
f 472//472 473//473 474//474
f 475//475 476//476 477//477
f 478//478 479//479 480//480
f 481//481 482//482 483//483
f 484//484 485//485 486//486
f 487//487 488//488 489//489
f 490//490 491//491 492//492
f 493//493 494//494 495//495
f 496//496 497//497 498//498
f 499//499 500//500 501//501
f 502//502 503//503 504//504
f 505//505 506//506 507//507
f 508//508 509//509 510//510
f 511//511 512//512 513//513
f 514//514 515//515 516//516
f 517//517 518//518 519//519
f 520//520 521//521 522//522
f 523//523 524//524 525//525
f 526//526 527//527 528//528
f 529//529 530//530 531//531
f 532//532 533//533 534//534
f 535//535 536//536 537//537
f 538//538 539//539 540//540
f 541//541 542//542 543//543
f 544//544 545//545 546//546
f 547//547 548//548 549//549
f 550//550 551//551 552//552
f 553//553 554//554 555//555
f 556//556 557//557 558//558
f 559//559 560//560 561//561
f 562//562 563//563 564//564
f 565//565 566//566 567//567
f 568//568 569//569 570//570
f 571//571 572//572 573//573
f 574//574 575//575 576//576
f 577//577 578//578 579//579
f 580//580 581//581 582//582
f 583//583 584//584 585//585
f 586//586 587//587 588//588
f 589//589 590//590 591//591
f 592//592 593//593 594//594
f 595//595 596//596 597//597
f 598//598 599//599 600//600
f 601//601 602//602 603//603
f 604//604 605//605 606//606
f 607//607 608//608 609//609
f 610//610 611//611 612//612
f 613//613 614//614 615//615
f 616//616 617//617 618//618
f 619//619 620//620 621//621
f 622//622 623//623 624//624
f 625//625 626//626 627//627
f 628//628 629//629 630//630
f 631//631 632//632 633//633
f 634//634 635//635 636//636
f 637//637 638//638 639//639
f 640//640 641//641 642//642
f 643//643 644//644 645//645
f 646//646 647//647 648//648
f 649//649 650//650 651//651
f 652//652 653//653 654//654
f 655//655 656//656 657//657
f 658//658 659//659 660//660
f 661//661 662//662 663//663
f 664//664 665//665 666//666
f 667//667 668//668 669//669
f 670//670 671//671 672//672
f 673//673 674//674 675//675
f 676//676 677//677 678//678
f 679//679 680//680 681//681
f 682//682 683//683 684//684
f 685//685 686//686 687//687
f 688//688 689//689 690//690
f 691//691 692//692 693//693
f 694//694 695//695 696//696
f 697//697 698//698 699//699
f 700//700 701//701 702//702
f 703//703 704//704 705//705
f 706//706 707//707 708//708
f 709//709 710//710 711//711
f 712//712 713//713 714//714
f 715//715 716//716 717//717
f 718//718 719//719 720//720
f 721//721 722//722 723//723
f 724//724 725//725 726//726
f 727//727 728//728 729//729
f 730//730 731//731 732//732
f 733//733 734//734 735//735
f 736//736 737//737 738//738
f 739//739 740//740 741//741
f 742//742 743//743 744//744
f 745//745 746//746 747//747
f 748//748 749//749 750//750
f 751//751 752//752 753//753
f 754//754 755//755 756//756
f 757//757 758//758 759//759
f 760//760 761//761 762//762
f 763//763 764//764 765//765
f 766//766 767//767 768//768
f 769//769 770//770 771//771
f 772//772 773//773 774//774
f 775//775 776//776 777//777
f 778//778 779//779 780//780
f 781//781 782//782 783//783
f 784//784 785//785 786//786
f 787//787 788//788 789//789
f 790//790 791//791 792//792
f 793//793 794//794 795//795
f 796//796 797//797 798//798
f 799//799 800//800 801//801
f 802//802 803//803 804//804
f 805//805 806//806 807//807
f 808//808 809//809 810//810
f 811//811 812//812 813//813
f 814//814 815//815 816//816
f 817//817 818//818 819//819
f 820//820 821//821 822//822
f 823//823 824//824 825//825
f 826//826 827//827 828//828
f 829//829 830//830 831//831
f 832//832 833//833 834//834
f 835//835 836//836 837//837
f 838//838 839//839 840//840
f 841//841 842//842 843//843
f 844//844 845//845 846//846
f 847//847 848//848 849//849
f 850//850 851//851 852//852
f 853//853 854//854 855//855
f 856//856 857//857 858//858
f 859//859 860//860 861//861
f 862//862 863//863 864//864
f 865//865 866//866 867//867
f 868//868 869//869 870//870
f 871//871 872//872 873//873
f 874//874 875//875 876//876
f 877//877 878//878 879//879
f 880//880 881//881 882//882
f 883//883 884//884 885//885
f 886//886 887//887 888//888
f 889//889 890//890 891//891
f 892//892 893//893 894//894
f 895//895 896//896 897//897
f 898//898 899//899 900//900
f 901//901 902//902 903//903
f 904//904 905//905 906//906
f 907//907 908//908 909//909
f 910//910 911//911 912//912
f 913//913 914//914 915//915
f 916//916 917//917 918//918
f 919//919 920//920 921//921
f 922//922 923//923 924//924
f 925//925 926//926 927//927
f 928//928 929//929 930//930
f 931//931 932//932 933//933
f 934//934 935//935 936//936
f 937//937 938//938 939//939
f 940//940 941//941 942//942
f 943//943 944//944 945//945
f 946//946 947//947 948//948
f 949//949 950//950 951//951
f 952//952 953//953 954//954
f 955//955 956//956 957//957
f 958//958 959//959 960//960
f 961//961 962//962 963//963
f 964//964 965//965 966//966
f 967//967 968//968 969//969
f 970//970 971//971 972//972
f 973//973 974//974 975//975
f 976//976 977//977 978//978
f 979//979 980//980 981//981
f 982//982 983//983 984//984
f 985//985 986//986 987//987
f 988//988 989//989 990//990
