# vectorwake hull, generated from client/arena/world.lua
o Cipher
v -2.35385 3.75000 -0.62000
v -4.70769 -6.51562 -0.62000
v -4.70769 -6.51562 0.62000
v -2.35385 3.75000 -0.62000
v -4.70769 -6.51562 0.62000
v -2.35385 3.75000 0.62000
v -2.35385 3.75000 0.62000
v -4.70769 -6.51562 0.62000
v -1.61634 -6.75746 2.40253
v -2.35385 3.75000 0.62000
v -1.61634 -6.75746 2.40253
v -0.70714 3.45573 1.44174
v -4.70769 -6.51562 -0.62000
v -2.35385 3.75000 -0.62000
v -0.70714 3.45573 -0.71861
v -4.70769 -6.51562 -0.62000
v -0.70714 3.45573 -0.71861
v -1.61634 -6.75746 -0.83390
v -4.70769 -6.51562 -0.62000
v -4.15385 -14.50000 -0.62000
v -4.15385 -14.50000 0.62000
v -4.70769 -6.51562 -0.62000
v -4.15385 -14.50000 0.62000
v -4.70769 -6.51562 0.62000
v -4.70769 -6.51562 0.62000
v -4.15385 -14.50000 0.62000
v -1.75516 -15.53182 1.96711
v -4.70769 -6.51562 0.62000
v -1.75516 -15.53182 1.96711
v -1.61634 -6.75746 2.40253
v -4.15385 -14.50000 -0.62000
v -4.70769 -6.51562 -0.62000
v -1.61634 -6.75746 -0.83390
v -4.15385 -14.50000 -0.62000
v -1.61634 -6.75746 -0.83390
v -1.75516 -15.53182 -0.78165
v -4.15385 -14.50000 -0.62000
v -9.00000 -18.49219 -0.62000
v -9.00000 -18.49219 0.62000
v -4.15385 -14.50000 -0.62000
v -9.00000 -18.49219 0.62000
v -4.15385 -14.50000 0.62000
v -4.15385 -14.50000 0.62000
v -9.00000 -18.49219 0.62000
v -6.19347 -17.17373 2.28401
v -4.15385 -14.50000 0.62000
v -6.19347 -17.17373 2.28401
v -1.75516 -15.53182 1.96711
v -9.00000 -18.49219 -0.62000
v -4.15385 -14.50000 -0.62000
v -1.75516 -15.53182 -0.78165
v -9.00000 -18.49219 -0.62000
v -1.75516 -15.53182 -0.78165
v -6.19347 -17.17373 -0.81968
v -9.00000 -18.49219 -0.62000
v -3.04615 -17.35156 -0.62000
v -3.04615 -17.35156 0.62000
v -9.00000 -18.49219 -0.62000
v -3.04615 -17.35156 0.62000
v -9.00000 -18.49219 0.62000
v -9.00000 -18.49219 0.62000
v -3.04615 -17.35156 0.62000
v -1.65640 -14.57964 4.16840
v -9.00000 -18.49219 0.62000
v -1.65640 -14.57964 4.16840
v -6.19347 -17.17373 2.28401
v -3.04615 -17.35156 -0.62000
v -9.00000 -18.49219 -0.62000
v -6.19347 -17.17373 -0.81968
v -3.04615 -17.35156 -0.62000
v -6.19347 -17.17373 -0.81968
v -1.65640 -14.57964 -1.04581
v -3.04615 -17.35156 -0.62000
v -2.21538 -19.06250 -0.62000
v -2.21538 -19.06250 0.62000
v -3.04615 -17.35156 -0.62000
v -2.21538 -19.06250 0.62000
v -3.04615 -17.35156 0.62000
v -3.04615 -17.35156 0.62000
v -2.21538 -19.06250 0.62000
v -0.56990 -16.43432 2.83318
v -3.04615 -17.35156 0.62000
v -0.56990 -16.43432 2.83318
v -1.65640 -14.57964 4.16840
v -2.21538 -19.06250 -0.62000
v -3.04615 -17.35156 -0.62000
v -1.65640 -14.57964 -1.04581
v -2.21538 -19.06250 -0.62000
v -1.65640 -14.57964 -1.04581
v -0.56990 -16.43432 -0.88558
v -2.21538 -19.06250 -0.62000
v 0.00000 -19.06250 -0.62000
v 0.00000 -19.06250 0.62000
v -2.21538 -19.06250 -0.62000
v 0.00000 -19.06250 0.62000
v -2.21538 -19.06250 0.62000
v -2.21538 -19.06250 0.62000
v 0.00000 -19.06250 0.62000
v 0.00000 -15.96170 4.22677
v -2.21538 -19.06250 0.62000
v 0.00000 -15.96170 4.22677
v -0.56990 -16.43432 2.83318
v 0.00000 -19.06250 -0.62000
v -2.21538 -19.06250 -0.62000
v -0.56990 -16.43432 -0.88558
v 0.00000 -19.06250 -0.62000
v -0.56990 -16.43432 -0.88558
v 0.00000 -15.96170 -1.05281
v 0.00000 -19.06250 -0.62000
v 2.21538 -19.06250 -0.62000
v 2.21538 -19.06250 0.62000
v 0.00000 -19.06250 -0.62000
v 2.21538 -19.06250 0.62000
v 0.00000 -19.06250 0.62000
v 0.00000 -19.06250 0.62000
v 2.21538 -19.06250 0.62000
v 0.56990 -16.43432 2.83318
v 0.00000 -19.06250 0.62000
v 0.56990 -16.43432 2.83318
v 0.00000 -15.96170 4.22677
v 2.21538 -19.06250 -0.62000
v 0.00000 -19.06250 -0.62000
v 0.00000 -15.96170 -1.05281
v 2.21538 -19.06250 -0.62000
v 0.00000 -15.96170 -1.05281
v 0.56990 -16.43432 -0.88558
v 2.21538 -19.06250 -0.62000
v 3.04615 -17.35156 -0.62000
v 3.04615 -17.35156 0.62000
v 2.21538 -19.06250 -0.62000
v 3.04615 -17.35156 0.62000
v 2.21538 -19.06250 0.62000
v 2.21538 -19.06250 0.62000
v 3.04615 -17.35156 0.62000
v 1.65640 -14.57964 4.16840
v 2.21538 -19.06250 0.62000
v 1.65640 -14.57964 4.16840
v 0.56990 -16.43432 2.83318
v 3.04615 -17.35156 -0.62000
v 2.21538 -19.06250 -0.62000
v 0.56990 -16.43432 -0.88558
v 3.04615 -17.35156 -0.62000
v 0.56990 -16.43432 -0.88558
v 1.65640 -14.57964 -1.04581
v 3.04615 -17.35156 -0.62000
v 9.00000 -18.49219 -0.62000
v 9.00000 -18.49219 0.62000
v 3.04615 -17.35156 -0.62000
v 9.00000 -18.49219 0.62000
v 3.04615 -17.35156 0.62000
v 3.04615 -17.35156 0.62000
v 9.00000 -18.49219 0.62000
v 6.19347 -17.17373 2.28401
v 3.04615 -17.35156 0.62000
v 6.19347 -17.17373 2.28401
v 1.65640 -14.57964 4.16840
v 9.00000 -18.49219 -0.62000
v 3.04615 -17.35156 -0.62000
v 1.65640 -14.57964 -1.04581
v 9.00000 -18.49219 -0.62000
v 1.65640 -14.57964 -1.04581
v 6.19347 -17.17373 -0.81968
v 9.00000 -18.49219 -0.62000
v 4.15385 -14.50000 -0.62000
v 4.15385 -14.50000 0.62000
v 9.00000 -18.49219 -0.62000
v 4.15385 -14.50000 0.62000
v 9.00000 -18.49219 0.62000
v 9.00000 -18.49219 0.62000
v 4.15385 -14.50000 0.62000
v 1.75516 -15.53182 1.96711
v 9.00000 -18.49219 0.62000
v 1.75516 -15.53182 1.96711
v 6.19347 -17.17373 2.28401
v 4.15385 -14.50000 -0.62000
v 9.00000 -18.49219 -0.62000
v 6.19347 -17.17373 -0.81968
v 4.15385 -14.50000 -0.62000
v 6.19347 -17.17373 -0.81968
v 1.75516 -15.53182 -0.78165
v 4.15385 -14.50000 -0.62000
v 4.70769 -6.51562 -0.62000
v 4.70769 -6.51562 0.62000
v 4.15385 -14.50000 -0.62000
v 4.70769 -6.51562 0.62000
v 4.15385 -14.50000 0.62000
v 4.15385 -14.50000 0.62000
v 4.70769 -6.51562 0.62000
v 1.61634 -6.75746 2.40253
v 4.15385 -14.50000 0.62000
v 1.61634 -6.75746 2.40253
v 1.75516 -15.53182 1.96711
v 4.70769 -6.51562 -0.62000
v 4.15385 -14.50000 -0.62000
v 1.75516 -15.53182 -0.78165
v 4.70769 -6.51562 -0.62000
v 1.75516 -15.53182 -0.78165
v 1.61634 -6.75746 -0.83390
v 4.70769 -6.51562 -0.62000
v 2.35385 3.75000 -0.62000
v 2.35385 3.75000 0.62000
v 4.70769 -6.51562 -0.62000
v 2.35385 3.75000 0.62000
v 4.70769 -6.51562 0.62000
v 4.70769 -6.51562 0.62000
v 2.35385 3.75000 0.62000
v 0.70714 3.45573 1.44174
v 4.70769 -6.51562 0.62000
v 0.70714 3.45573 1.44174
v 1.61634 -6.75746 2.40253
v 2.35385 3.75000 -0.62000
v 4.70769 -6.51562 -0.62000
v 1.61634 -6.75746 -0.83390
v 2.35385 3.75000 -0.62000
v 1.61634 -6.75746 -0.83390
v 0.70714 3.45573 -0.71861
v 2.35385 3.75000 -0.62000
v 0.00000 22.00000 -0.62000
v 0.00000 22.00000 0.62000
v 2.35385 3.75000 -0.62000
v 0.00000 22.00000 0.62000
v 2.35385 3.75000 0.62000
v 2.35385 3.75000 0.62000
v 0.00000 22.00000 0.62000
v 0.00000 18.89920 1.33743
v 2.35385 3.75000 0.62000
v 0.00000 18.89920 1.33743
v 0.70714 3.45573 1.44174
v 0.00000 22.00000 -0.62000
v 2.35385 3.75000 -0.62000
v 0.70714 3.45573 -0.71861
v 0.00000 22.00000 -0.62000
v 0.70714 3.45573 -0.71861
v 0.00000 18.89920 -0.70609
v 0.00000 22.00000 -0.62000
v -2.35385 3.75000 -0.62000
v -2.35385 3.75000 0.62000
v 0.00000 22.00000 -0.62000
v -2.35385 3.75000 0.62000
v 0.00000 22.00000 0.62000
v 0.00000 22.00000 0.62000
v -2.35385 3.75000 0.62000
v -0.70714 3.45573 1.44174
v 0.00000 22.00000 0.62000
v -0.70714 3.45573 1.44174
v 0.00000 18.89920 1.33743
v -2.35385 3.75000 -0.62000
v 0.00000 22.00000 -0.62000
v 0.00000 18.89920 -0.70609
v -2.35385 3.75000 -0.62000
v 0.00000 18.89920 -0.70609
v -0.70714 3.45573 -0.71861
v -0.70714 3.45573 1.44174
v -1.61634 -6.75746 2.40253
v -1.75516 -15.53182 1.96711
v -0.70714 3.45573 -0.71861
v -1.75516 -15.53182 -0.78165
v -1.61634 -6.75746 -0.83390
v -1.65640 -14.57964 4.16840
v -0.56990 -16.43432 2.83318
v 0.00000 -15.96170 4.22677
v -1.65640 -14.57964 -1.04581
v 0.00000 -15.96170 -1.05281
v -0.56990 -16.43432 -0.88558
v -1.65640 -14.57964 4.16840
v 0.00000 -15.96170 4.22677
v 0.56990 -16.43432 2.83318
v -1.65640 -14.57964 -1.04581
v 0.56990 -16.43432 -0.88558
v 0.00000 -15.96170 -1.05281
v -1.65640 -14.57964 4.16840
v 0.56990 -16.43432 2.83318
v 1.65640 -14.57964 4.16840
v -1.65640 -14.57964 -1.04581
v 1.65640 -14.57964 -1.04581
v 0.56990 -16.43432 -0.88558
v 1.75516 -15.53182 1.96711
v 1.61634 -6.75746 2.40253
v 0.70714 3.45573 1.44174
v 1.75516 -15.53182 -0.78165
v 0.70714 3.45573 -0.71861
v 1.61634 -6.75746 -0.83390
v 0.70714 3.45573 1.44174
v 0.00000 18.89920 1.33743
v -0.70714 3.45573 1.44174
v 0.70714 3.45573 -0.71861
v -0.70714 3.45573 -0.71861
v 0.00000 18.89920 -0.70609
v 0.00000 1.75390 4.56726
v 0.00000 17.43750 4.56726
v 1.93846 0.32812 4.56726
v 0.00000 17.43750 3.16726
v 1.93846 0.32812 3.16726
v 1.93846 0.32812 4.56726
v 0.00000 17.43750 3.16726
v 1.93846 0.32812 4.56726
v 0.00000 17.43750 4.56726
v 0.00000 1.75390 4.56726
v 1.93846 0.32812 4.56726
v 0.00000 -11.07812 4.56726
v 1.93846 0.32812 3.16726
v 0.00000 -11.07812 3.16726
v 0.00000 -11.07812 4.56726
v 1.93846 0.32812 3.16726
v 0.00000 -11.07812 4.56726
v 1.93846 0.32812 4.56726
v 0.00000 1.75390 4.56726
v 0.00000 -11.07812 4.56726
v -1.93846 0.32812 4.56726
v 0.00000 -11.07812 3.16726
v -1.93846 0.32812 3.16726
v -1.93846 0.32812 4.56726
v 0.00000 -11.07812 3.16726
v -1.93846 0.32812 4.56726
v 0.00000 -11.07812 4.56726
v 0.00000 1.75390 4.56726
v -1.93846 0.32812 4.56726
v 0.00000 17.43750 4.56726
v -1.93846 0.32812 3.16726
v 0.00000 17.43750 3.16726
v 0.00000 17.43750 4.56726
v -1.93846 0.32812 3.16726
v 0.00000 17.43750 4.56726
v -1.93846 0.32812 4.56726
v 0.00000 15.72656 1.12624
v 1.24615 11.73438 0.59492
v 0.00000 12.01953 2.87037
v 1.24615 11.73438 0.59492
v 0.00000 8.88281 1.87037
v 0.00000 12.01953 2.87037
v 0.00000 8.88281 1.87037
v -1.24615 11.73438 0.59492
v 0.00000 12.01953 2.87037
v -1.24615 11.73438 0.59492
v 0.00000 15.72656 1.12624
v 0.00000 12.01953 2.87037
v -1.45000 -17.26250 0.00000
v -1.45000 -19.16250 0.00000
v -0.72500 -19.16250 -1.25574
v -1.45000 -17.26250 0.00000
v -0.72500 -19.16250 -1.25574
v -0.72500 -17.26250 -1.25574
v 0.00000 -19.16250 0.00000
v -1.45000 -19.16250 0.00000
v -0.72500 -19.16250 -1.25574
v 0.00000 -17.26250 0.00000
v -0.72500 -17.26250 -1.25574
v -1.45000 -17.26250 0.00000
v -0.72500 -17.26250 -1.25574
v -0.72500 -19.16250 -1.25574
v 0.72500 -19.16250 -1.25574
v -0.72500 -17.26250 -1.25574
v 0.72500 -19.16250 -1.25574
v 0.72500 -17.26250 -1.25574
v 0.00000 -19.16250 0.00000
v -0.72500 -19.16250 -1.25574
v 0.72500 -19.16250 -1.25574
v 0.00000 -17.26250 0.00000
v 0.72500 -17.26250 -1.25574
v -0.72500 -17.26250 -1.25574
v 0.72500 -17.26250 -1.25574
v 0.72500 -19.16250 -1.25574
v 1.45000 -19.16250 0.00000
v 0.72500 -17.26250 -1.25574
v 1.45000 -19.16250 0.00000
v 1.45000 -17.26250 0.00000
v 0.00000 -19.16250 0.00000
v 0.72500 -19.16250 -1.25574
v 1.45000 -19.16250 0.00000
v 0.00000 -17.26250 0.00000
v 1.45000 -17.26250 0.00000
v 0.72500 -17.26250 -1.25574
v 1.45000 -17.26250 0.00000
v 1.45000 -19.16250 0.00000
v 0.72500 -19.16250 1.25574
v 1.45000 -17.26250 0.00000
v 0.72500 -19.16250 1.25574
v 0.72500 -17.26250 1.25574
v 0.00000 -19.16250 0.00000
v 1.45000 -19.16250 0.00000
v 0.72500 -19.16250 1.25574
v 0.00000 -17.26250 0.00000
v 0.72500 -17.26250 1.25574
v 1.45000 -17.26250 0.00000
v 0.72500 -17.26250 1.25574
v 0.72500 -19.16250 1.25574
v -0.72500 -19.16250 1.25574
v 0.72500 -17.26250 1.25574
v -0.72500 -19.16250 1.25574
v -0.72500 -17.26250 1.25574
v 0.00000 -19.16250 0.00000
v 0.72500 -19.16250 1.25574
v -0.72500 -19.16250 1.25574
v 0.00000 -17.26250 0.00000
v -0.72500 -17.26250 1.25574
v 0.72500 -17.26250 1.25574
v -0.72500 -17.26250 1.25574
v -0.72500 -19.16250 1.25574
v -1.45000 -19.16250 -0.00000
v -0.72500 -17.26250 1.25574
v -1.45000 -19.16250 -0.00000
v -1.45000 -17.26250 -0.00000
v 0.00000 -19.16250 0.00000
v -0.72500 -19.16250 1.25574
v -1.45000 -19.16250 -0.00000
v 0.00000 -17.26250 0.00000
v -1.45000 -17.26250 -0.00000
v -0.72500 -17.26250 1.25574
v 0.00000 -19.22250 0.00000
v -1.01500 -19.22250 0.00000
v -0.50750 -19.22250 -0.87902
v 0.00000 -19.22250 0.00000
v -0.50750 -19.22250 -0.87902
v 0.50750 -19.22250 -0.87902
v 0.00000 -19.22250 0.00000
v 0.50750 -19.22250 -0.87902
v 1.01500 -19.22250 0.00000
v 0.00000 -19.22250 0.00000
v 1.01500 -19.22250 0.00000
v 0.50750 -19.22250 0.87902
v 0.00000 -19.22250 0.00000
v 0.50750 -19.22250 0.87902
v -0.50750 -19.22250 0.87902
v 0.00000 -19.22250 0.00000
v -0.50750 -19.22250 0.87902
v -1.01500 -19.22250 -0.00000
vn -0.97471 0.22349 0.00000
vn -0.97471 0.22349 0.00000
vn -0.97471 0.22349 0.00000
vn -0.97471 0.22349 0.00000
vn -0.97471 0.22349 0.00000
vn -0.97471 0.22349 0.00000
vn -0.48976 0.11230 0.86460
vn -0.48976 0.11230 0.86460
vn -0.48976 0.11230 0.86460
vn -0.42559 0.12224 0.89662
vn -0.42559 0.12224 0.89662
vn -0.42559 0.12224 0.89662
vn -0.05743 0.01317 -0.99826
vn -0.05743 0.01317 -0.99826
vn -0.05743 0.01317 -0.99826
vn -0.06767 0.01729 -0.99756
vn -0.06767 0.01729 -0.99756
vn -0.06767 0.01729 -0.99756
vn -0.99760 -0.06920 0.00000
vn -0.99760 -0.06920 0.00000
vn -0.99760 -0.06920 0.00000
vn -0.99760 -0.06920 0.00000
vn -0.99760 -0.06920 0.00000
vn -0.99760 -0.06920 0.00000
vn -0.50069 -0.03473 0.86493
vn -0.50069 -0.03473 0.86493
vn -0.50069 -0.03473 0.86493
vn -0.50127 -0.03497 0.86458
vn -0.50127 -0.03497 0.86458
vn -0.50127 -0.03497 0.86458
vn -0.06940 -0.00481 -0.99758
vn -0.06940 -0.00481 -0.99758
vn -0.06940 -0.00481 -0.99758
vn -0.06931 -0.00484 -0.99758
vn -0.06931 -0.00484 -0.99758
vn -0.06931 -0.00484 -0.99758
vn -0.63583 0.77183 0.00000
vn -0.63583 0.77183 0.00000
vn -0.63583 0.77183 0.00000
vn -0.63583 0.77183 0.00000
vn -0.63583 0.77183 0.00000
vn -0.63583 0.77183 0.00000
vn -0.57746 0.70098 0.41853
vn -0.57746 0.70098 0.41853
vn -0.57746 0.70098 0.41853
vn -0.17098 0.61132 0.77269
vn -0.17098 0.61132 0.77269
vn -0.17098 0.61132 0.77269
vn -0.04417 0.05361 -0.99758
vn -0.04417 0.05361 -0.99758
vn -0.04417 0.05361 -0.99758
vn -0.23110 0.60707 0.76030
vn -0.23110 0.60707 0.76030
vn -0.23110 0.60707 0.76030
vn 0.18816 -0.98214 0.00000
vn 0.18816 -0.98214 0.00000
vn 0.18816 -0.98214 0.00000
vn 0.18816 -0.98214 0.00000
vn 0.18816 -0.98214 0.00000
vn 0.18816 -0.98214 0.00000
vn 0.15461 -0.80705 0.56989
vn 0.15461 -0.80705 0.56989
vn 0.15461 -0.80705 0.56989
vn 0.57492 -0.70954 -0.40747
vn 0.57492 -0.70954 -0.40747
vn 0.57492 -0.70954 -0.40747
vn 0.04741 -0.24749 -0.96773
vn 0.04741 -0.24749 -0.96773
vn 0.04741 -0.24749 -0.96773
vn 0.05234 -0.17721 -0.98278
vn 0.05234 -0.17721 -0.98278
vn 0.05234 -0.17721 -0.98278
vn -0.89956 -0.43679 0.00000
vn -0.89956 -0.43679 0.00000
vn -0.89956 -0.43679 0.00000
vn -0.89956 -0.43679 0.00000
vn -0.89956 -0.43679 0.00000
vn -0.89956 -0.43679 0.00000
vn -0.57943 -0.28135 0.76492
vn -0.57943 -0.28135 0.76492
vn -0.57943 -0.28135 0.76492
vn -0.33906 -0.67235 0.65802
vn -0.33906 -0.67235 0.65802
vn -0.33906 -0.67235 0.65802
vn -0.15337 -0.07447 -0.98536
vn -0.15337 -0.07447 -0.98536
vn -0.15337 -0.07447 -0.98536
vn -0.01204 -0.09306 -0.99559
vn -0.01204 -0.09306 -0.99559
vn -0.01204 -0.09306 -0.99559
vn 0.00000 -1.00000 0.00000
vn 0.00000 -1.00000 0.00000
vn 0.00000 -1.00000 0.00000
vn 0.00000 -1.00000 0.00000
vn 0.00000 -1.00000 0.00000
vn 0.00000 -1.00000 0.00000
vn 0.00000 -0.75829 0.65191
vn 0.00000 -0.75829 0.65191
vn 0.00000 -0.75829 0.65191
vn -0.90121 0.35538 0.24802
vn -0.90121 0.35538 0.24802
vn -0.90121 0.35538 0.24802
vn -0.00000 -0.10054 -0.99493
vn -0.00000 -0.10054 -0.99493
vn -0.00000 -0.10054 -0.99493
vn -0.17332 -0.13615 -0.97541
vn -0.17332 -0.13615 -0.97541
vn -0.17332 -0.13615 -0.97541
vn 0.00000 -1.00000 0.00000
vn 0.00000 -1.00000 0.00000
vn 0.00000 -1.00000 0.00000
vn 0.00000 -1.00000 0.00000
vn 0.00000 -1.00000 0.00000
vn 0.00000 -1.00000 0.00000
vn 0.00000 -0.64413 0.76492
vn 0.00000 -0.64413 0.76492
vn 0.00000 -0.64413 0.76492
vn 0.69451 -0.54557 0.46904
vn 0.69451 -0.54557 0.46904
vn 0.69451 -0.54557 0.46904
vn -0.00000 -0.13824 -0.99040
vn -0.00000 -0.13824 -0.99040
vn -0.00000 -0.13824 -0.99040
vn 0.39481 0.15569 -0.90547
vn 0.39481 0.15569 -0.90547
vn 0.39481 0.15569 -0.90547
vn 0.89956 -0.43679 0.00000
vn 0.89956 -0.43679 0.00000
vn 0.89956 -0.43679 0.00000
vn 0.89956 -0.43679 0.00000
vn 0.89956 -0.43679 0.00000
vn 0.89956 -0.43679 0.00000
vn 0.73919 -0.35892 0.56989
vn 0.73919 -0.35892 0.56989
vn 0.73919 -0.35892 0.56989
vn 0.07928 -0.61260 0.78641
vn 0.07928 -0.61260 0.78641
vn 0.07928 -0.61260 0.78641
vn 0.09044 -0.04391 -0.99493
vn 0.09044 -0.04391 -0.99493
vn 0.09044 -0.04391 -0.99493
vn 0.06126 -0.12147 -0.99070
vn 0.06126 -0.12147 -0.99070
vn 0.06126 -0.12147 -0.99070
vn -0.18816 -0.98214 0.00000
vn -0.18816 -0.98214 0.00000
vn -0.18816 -0.98214 0.00000
vn -0.18816 -0.98214 0.00000
vn -0.18816 -0.98214 0.00000
vn -0.18816 -0.98214 0.00000
vn -0.17088 -0.89198 0.41853
vn -0.17088 -0.89198 0.41853
vn -0.17088 -0.89198 0.41853
vn -0.23877 -0.80842 0.53800
vn -0.23877 -0.80842 0.53800
vn -0.23877 -0.80842 0.53800
vn -0.03208 -0.16745 -0.98536
vn -0.03208 -0.16745 -0.98536
vn -0.03208 -0.16745 -0.98536
vn -0.16350 -0.20179 0.96568
vn -0.16350 -0.20179 0.96568
vn -0.16350 -0.20179 0.96568
vn 0.63583 0.77183 0.00000
vn 0.63583 0.77183 0.00000
vn 0.63583 0.77183 0.00000
vn 0.63583 0.77183 -0.00000
vn 0.63583 0.77183 -0.00000
vn 0.63583 0.77183 -0.00000
vn 0.31911 0.38738 0.86493
vn 0.31911 0.38738 0.86493
vn 0.31911 0.38738 0.86493
vn 0.35231 0.92549 -0.13909
vn 0.35231 0.92549 -0.13909
vn 0.35231 0.92549 -0.13909
vn 0.16022 0.19450 -0.96773
vn 0.16022 0.19450 -0.96773
vn 0.16022 0.19450 -0.96773
vn 0.02643 0.09448 -0.99518
vn 0.02643 0.09448 -0.99518
vn 0.02643 0.09448 -0.99518
vn 0.99760 -0.06920 0.00000
vn 0.99760 -0.06920 0.00000
vn 0.99760 -0.06920 0.00000
vn 0.99760 -0.06920 0.00000
vn 0.99760 -0.06920 0.00000
vn 0.99760 -0.06920 0.00000
vn 0.50126 -0.03477 0.86460
vn 0.50126 -0.03477 0.86460
vn 0.50126 -0.03477 0.86460
vn 0.50077 -0.03500 0.86487
vn 0.50077 -0.03500 0.86487
vn 0.50077 -0.03500 0.86487
vn 0.06930 -0.00481 -0.99758
vn 0.06930 -0.00481 -0.99758
vn 0.06930 -0.00481 -0.99758
vn 0.06941 -0.00484 -0.99758
vn 0.06941 -0.00484 -0.99758
vn 0.06941 -0.00484 -0.99758
vn 0.97471 0.22349 0.00000
vn 0.97471 0.22349 0.00000
vn 0.97471 0.22349 0.00000
vn 0.97471 0.22349 -0.00000
vn 0.97471 0.22349 -0.00000
vn 0.97471 0.22349 -0.00000
vn 0.43017 0.09863 0.89735
vn 0.43017 0.09863 0.89735
vn 0.43017 0.09863 0.89735
vn 0.48828 0.12472 0.86373
vn 0.48828 0.12472 0.86373
vn 0.48828 0.12472 0.86373
vn 0.06781 0.01555 -0.99758
vn 0.06781 0.01555 -0.99758
vn 0.06781 0.01555 -0.99758
vn 0.05686 0.01633 -0.99825
vn 0.05686 0.01633 -0.99825
vn 0.05686 0.01633 -0.99825
vn 0.99178 0.12792 0.00000
vn 0.99178 0.12792 0.00000
vn 0.99178 0.12792 0.00000
vn 0.99178 0.12792 -0.00000
vn 0.99178 0.12792 -0.00000
vn 0.99178 0.12792 -0.00000
vn 0.86796 0.11195 0.48385
vn 0.86796 0.11195 0.48385
vn 0.86796 0.11195 0.48385
vn 0.44259 0.02632 0.89634
vn 0.44259 0.02632 0.89634
vn 0.44259 0.02632 0.89634
vn 0.05843 0.00754 -0.99826
vn 0.05843 0.00754 -0.99826
vn 0.05843 0.00754 -0.99826
vn 0.50714 0.02392 -0.86153
vn 0.50714 0.02392 -0.86153
vn 0.50714 0.02392 -0.86153
vn -0.99178 0.12792 0.00000
vn -0.99178 0.12792 0.00000
vn -0.99178 0.12792 0.00000
vn -0.99178 0.12792 0.00000
vn -0.99178 0.12792 0.00000
vn -0.99178 0.12792 0.00000
vn -0.43770 0.05645 0.89735
vn -0.43770 0.05645 0.89735
vn -0.43770 0.05645 0.89735
vn -0.97880 0.04617 0.19953
vn -0.97880 0.04617 0.19953
vn -0.97880 0.04617 0.19953
vn -0.21037 0.02713 -0.97725
vn -0.21037 0.02713 -0.97725
vn -0.21037 0.02713 -0.97725
vn -0.05915 0.00352 -0.99824
vn -0.05915 0.00352 -0.99824
vn -0.05915 0.00352 -0.99824
vn 0.89045 -0.03660 0.45360
vn 0.89045 -0.03660 0.45360
vn 0.89045 -0.03660 0.45360
vn 0.22928 -0.00942 -0.97331
vn 0.22928 -0.00942 -0.97331
vn 0.22928 -0.00942 -0.97331
vn -0.57712 -0.67208 0.46393
vn -0.57712 -0.67208 0.46393
vn -0.57712 -0.67208 0.46393
vn -0.14551 -0.16945 -0.97474
vn -0.14551 -0.16945 -0.97474
vn -0.14551 -0.16945 -0.97474
vn 0.64062 0.76785 0.00157
vn 0.64062 0.76785 0.00157
vn 0.64062 0.76785 0.00157
vn 0.64057 0.76779 -0.01312
vn 0.64057 0.76779 -0.01312
vn 0.64057 0.76779 -0.01312
vn 0.00000 -0.58426 0.81156
vn 0.00000 -0.58426 0.81156
vn 0.00000 -0.58426 0.81156
vn 0.00000 -0.08607 -0.99629
vn 0.00000 -0.08607 -0.99629
vn 0.00000 -0.08607 -0.99629
vn -0.89045 -0.03660 0.45360
vn -0.89045 -0.03660 0.45360
vn -0.89045 -0.03660 0.45360
vn -0.22928 -0.00942 -0.97331
vn -0.22928 -0.00942 -0.97331
vn -0.22928 -0.00942 -0.97331
vn 0.00000 0.00675 0.99998
vn 0.00000 0.00675 0.99998
vn 0.00000 0.00675 0.99998
vn 0.00000 0.00081 -1.00000
vn 0.00000 0.00081 -1.00000
vn 0.00000 0.00081 -1.00000
vn 0.00000 0.00000 -1.00000
vn 0.00000 0.00000 -1.00000
vn 0.00000 0.00000 -1.00000
vn -0.99364 -0.11258 0.00000
vn -0.99364 -0.11258 0.00000
vn -0.99364 -0.11258 0.00000
vn -0.99364 -0.11258 0.00000
vn -0.99364 -0.11258 0.00000
vn -0.99364 -0.11258 0.00000
vn 0.00000 0.00000 -1.00000
vn 0.00000 0.00000 -1.00000
vn 0.00000 0.00000 -1.00000
vn -0.98586 0.16754 0.00000
vn -0.98586 0.16754 0.00000
vn -0.98586 0.16754 0.00000
vn -0.98586 0.16754 0.00000
vn -0.98586 0.16754 0.00000
vn -0.98586 0.16754 0.00000
vn 0.00000 -0.00000 -1.00000
vn 0.00000 -0.00000 -1.00000
vn 0.00000 -0.00000 -1.00000
vn 0.98586 0.16754 0.00000
vn 0.98586 0.16754 0.00000
vn 0.98586 0.16754 0.00000
vn 0.98586 0.16754 -0.00000
vn 0.98586 0.16754 -0.00000
vn 0.98586 0.16754 -0.00000
vn -0.00000 0.00000 -1.00000
vn -0.00000 0.00000 -1.00000
vn -0.00000 0.00000 -1.00000
vn 0.99364 -0.11258 0.00000
vn 0.99364 -0.11258 0.00000
vn 0.99364 -0.11258 0.00000
vn 0.99364 -0.11258 0.00000
vn 0.99364 -0.11258 0.00000
vn 0.99364 -0.11258 0.00000
vn -0.86820 -0.21125 -0.44900
vn -0.86820 -0.21125 -0.44900
vn -0.86820 -0.21125 -0.44900
vn -0.85797 0.15603 -0.48942
vn -0.85797 0.15603 -0.48942
vn -0.85797 0.15603 -0.48942
vn 0.85797 0.15603 -0.48942
vn 0.85797 0.15603 -0.48942
vn 0.85797 0.15603 -0.48942
vn 0.86820 -0.21125 -0.44900
vn 0.86820 -0.21125 -0.44900
vn 0.86820 -0.21125 -0.44900
vn 0.86603 0.00000 0.50000
vn 0.86603 0.00000 0.50000
vn 0.86603 0.00000 0.50000
vn 0.86603 0.00000 0.50000
vn 0.86603 0.00000 0.50000
vn 0.86603 0.00000 0.50000
vn -0.00000 -1.00000 0.00000
vn -0.00000 -1.00000 0.00000
vn -0.00000 -1.00000 0.00000
vn 0.00000 1.00000 0.00000
vn 0.00000 1.00000 0.00000
vn 0.00000 1.00000 0.00000
vn -0.00000 0.00000 1.00000
vn -0.00000 0.00000 1.00000
vn -0.00000 0.00000 1.00000
vn -0.00000 0.00000 1.00000
vn -0.00000 0.00000 1.00000
vn -0.00000 0.00000 1.00000
vn 0.00000 -1.00000 -0.00000
vn 0.00000 -1.00000 -0.00000
vn 0.00000 -1.00000 -0.00000
vn 0.00000 1.00000 0.00000
vn 0.00000 1.00000 0.00000
vn 0.00000 1.00000 0.00000
vn -0.86603 0.00000 0.50000
vn -0.86603 0.00000 0.50000
vn -0.86603 0.00000 0.50000
vn -0.86603 0.00000 0.50000
vn -0.86603 0.00000 0.50000
vn -0.86603 0.00000 0.50000
vn 0.00000 -1.00000 0.00000
vn 0.00000 -1.00000 0.00000
vn 0.00000 -1.00000 0.00000
vn -0.00000 1.00000 0.00000
vn -0.00000 1.00000 0.00000
vn -0.00000 1.00000 0.00000
vn -0.86603 -0.00000 -0.50000
vn -0.86603 -0.00000 -0.50000
vn -0.86603 -0.00000 -0.50000
vn -0.86603 0.00000 -0.50000
vn -0.86603 0.00000 -0.50000
vn -0.86603 0.00000 -0.50000
vn 0.00000 -1.00000 0.00000
vn 0.00000 -1.00000 0.00000
vn 0.00000 -1.00000 0.00000
vn 0.00000 1.00000 0.00000
vn 0.00000 1.00000 0.00000
vn 0.00000 1.00000 0.00000
vn 0.00000 -0.00000 -1.00000
vn 0.00000 -0.00000 -1.00000
vn 0.00000 -0.00000 -1.00000
vn -0.00000 0.00000 -1.00000
vn -0.00000 0.00000 -1.00000
vn -0.00000 0.00000 -1.00000
vn 0.00000 -1.00000 0.00000
vn 0.00000 -1.00000 0.00000
vn 0.00000 -1.00000 0.00000
vn 0.00000 1.00000 -0.00000
vn 0.00000 1.00000 -0.00000
vn 0.00000 1.00000 -0.00000
vn 0.86603 0.00000 -0.50000
vn 0.86603 0.00000 -0.50000
vn 0.86603 0.00000 -0.50000
vn 0.86603 0.00000 -0.50000
vn 0.86603 0.00000 -0.50000
vn 0.86603 0.00000 -0.50000
vn -0.00000 -1.00000 0.00000
vn -0.00000 -1.00000 0.00000
vn -0.00000 -1.00000 0.00000
vn 0.00000 1.00000 0.00000
vn 0.00000 1.00000 0.00000
vn 0.00000 1.00000 0.00000
vn -0.00000 -1.00000 0.00000
vn -0.00000 -1.00000 0.00000
vn -0.00000 -1.00000 0.00000
vn 0.00000 -1.00000 -0.00000
vn 0.00000 -1.00000 -0.00000
vn 0.00000 -1.00000 -0.00000
vn 0.00000 -1.00000 0.00000
vn 0.00000 -1.00000 0.00000
vn 0.00000 -1.00000 0.00000
vn 0.00000 -1.00000 0.00000
vn 0.00000 -1.00000 0.00000
vn 0.00000 -1.00000 0.00000
vn 0.00000 -1.00000 0.00000
vn 0.00000 -1.00000 0.00000
vn 0.00000 -1.00000 0.00000
vn -0.00000 -1.00000 0.00000
vn -0.00000 -1.00000 0.00000
vn -0.00000 -1.00000 0.00000
f 1//1 2//2 3//3
f 4//4 5//5 6//6
f 7//7 8//8 9//9
f 10//10 11//11 12//12
f 13//13 14//14 15//15
f 16//16 17//17 18//18
f 19//19 20//20 21//21
f 22//22 23//23 24//24
f 25//25 26//26 27//27
f 28//28 29//29 30//30
f 31//31 32//32 33//33
f 34//34 35//35 36//36
f 37//37 38//38 39//39
f 40//40 41//41 42//42
f 43//43 44//44 45//45
f 46//46 47//47 48//48
f 49//49 50//50 51//51
f 52//52 53//53 54//54
f 55//55 56//56 57//57
f 58//58 59//59 60//60
f 61//61 62//62 63//63
f 64//64 65//65 66//66
f 67//67 68//68 69//69
f 70//70 71//71 72//72
f 73//73 74//74 75//75
f 76//76 77//77 78//78
f 79//79 80//80 81//81
f 82//82 83//83 84//84
f 85//85 86//86 87//87
f 88//88 89//89 90//90
f 91//91 92//92 93//93
f 94//94 95//95 96//96
f 97//97 98//98 99//99
f 100//100 101//101 102//102
f 103//103 104//104 105//105
f 106//106 107//107 108//108
f 109//109 110//110 111//111
f 112//112 113//113 114//114
f 115//115 116//116 117//117
f 118//118 119//119 120//120
f 121//121 122//122 123//123
f 124//124 125//125 126//126
f 127//127 128//128 129//129
f 130//130 131//131 132//132
f 133//133 134//134 135//135
f 136//136 137//137 138//138
f 139//139 140//140 141//141
f 142//142 143//143 144//144
f 145//145 146//146 147//147
f 148//148 149//149 150//150
f 151//151 152//152 153//153
f 154//154 155//155 156//156
f 157//157 158//158 159//159
f 160//160 161//161 162//162
f 163//163 164//164 165//165
f 166//166 167//167 168//168
f 169//169 170//170 171//171
f 172//172 173//173 174//174
f 175//175 176//176 177//177
f 178//178 179//179 180//180
f 181//181 182//182 183//183
f 184//184 185//185 186//186
f 187//187 188//188 189//189
f 190//190 191//191 192//192
f 193//193 194//194 195//195
f 196//196 197//197 198//198
f 199//199 200//200 201//201
f 202//202 203//203 204//204
f 205//205 206//206 207//207
f 208//208 209//209 210//210
f 211//211 212//212 213//213
f 214//214 215//215 216//216
f 217//217 218//218 219//219
f 220//220 221//221 222//222
f 223//223 224//224 225//225
f 226//226 227//227 228//228
f 229//229 230//230 231//231
f 232//232 233//233 234//234
f 235//235 236//236 237//237
f 238//238 239//239 240//240
f 241//241 242//242 243//243
f 244//244 245//245 246//246
f 247//247 248//248 249//249
f 250//250 251//251 252//252
f 253//253 254//254 255//255
f 256//256 257//257 258//258
f 259//259 260//260 261//261
f 262//262 263//263 264//264
f 265//265 266//266 267//267
f 268//268 269//269 270//270
f 271//271 272//272 273//273
f 274//274 275//275 276//276
f 277//277 278//278 279//279
f 280//280 281//281 282//282
f 283//283 284//284 285//285
f 286//286 287//287 288//288
f 289//289 290//290 291//291
f 292//292 293//293 294//294
f 295//295 296//296 297//297
f 298//298 299//299 300//300
f 301//301 302//302 303//303
f 304//304 305//305 306//306
f 307//307 308//308 309//309
f 310//310 311//311 312//312
f 313//313 314//314 315//315
f 316//316 317//317 318//318
f 319//319 320//320 321//321
f 322//322 323//323 324//324
f 325//325 326//326 327//327
f 328//328 329//329 330//330
f 331//331 332//332 333//333
f 334//334 335//335 336//336
f 337//337 338//338 339//339
f 340//340 341//341 342//342
f 343//343 344//344 345//345
f 346//346 347//347 348//348
f 349//349 350//350 351//351
f 352//352 353//353 354//354
f 355//355 356//356 357//357
f 358//358 359//359 360//360
f 361//361 362//362 363//363
f 364//364 365//365 366//366
f 367//367 368//368 369//369
f 370//370 371//371 372//372
f 373//373 374//374 375//375
f 376//376 377//377 378//378
f 379//379 380//380 381//381
f 382//382 383//383 384//384
f 385//385 386//386 387//387
f 388//388 389//389 390//390
f 391//391 392//392 393//393
f 394//394 395//395 396//396
f 397//397 398//398 399//399
f 400//400 401//401 402//402
f 403//403 404//404 405//405
f 406//406 407//407 408//408
f 409//409 410//410 411//411
f 412//412 413//413 414//414
f 415//415 416//416 417//417
f 418//418 419//419 420//420
f 421//421 422//422 423//423
f 424//424 425//425 426//426
